<?xml version="1.0" encoding="UTF-8"?>
<svg width="128pt" height="128pt" version="1.1" viewBox="0 0 128 128" xmlns="http://www.w3.org/2000/svg">
 <g>
  <path d="m60.16 7.0391v33.152l-9.9844-9.9844c-1.5352-1.5352-3.9688-1.5352-5.5039 0-1.5352 1.5352-1.5352 3.9688 0 5.5039l16.641 16.641c0.76953 0.76953 1.6641 1.1523 2.6875 1.1523s2.0469-0.38281 2.6875-1.1523l16.641-16.641c0.76953-0.76953 1.1523-1.793 1.1523-2.6875 0-1.0234-0.38281-2.0469-1.1523-2.6875-1.5352-1.5352-3.9688-1.5352-5.5039 0l-9.9844 9.9844v-33.281c0-2.1758-1.793-3.8398-3.8398-3.8398-2.1758 0-3.8398 1.793-3.8398 3.8398z"/>
  <path d="m41.09 64c0 2.1758 1.793 3.8398 3.8398 3.8398h38.016c2.1758 0 3.8398-1.793 3.8398-3.8398 0-2.1758-1.793-3.8398-3.8398-3.8398h-37.891c-2.1758 0-3.9648 1.6641-3.9648 3.8398z"/>
  <path d="m44.672 92.16c-1.5352 1.5352-1.5352 3.9688 0 5.5039 1.5352 1.5352 3.9688 1.5352 5.5039 0l9.9844-9.9844v33.152c0 2.1758 1.793 3.8398 3.8398 3.8398 2.1758 0 3.8398-1.793 3.8398-3.8398v-33.152l9.9844 9.9844c1.5352 1.5352 3.9688 1.5352 5.5039 0 0.76953-0.76953 1.1523-1.793 1.1523-2.6875 0-1.0234-0.38281-2.0469-1.1523-2.6875l-16.641-16.641c-0.76953-0.76953-1.6641-1.1523-2.6875-1.1523s-2.0469 0.38281-2.6875 1.1523z"/>
 </g>
</svg>
