<?xml version="1.0" encoding="UTF-8"?>
<svg width="128pt" height="128pt" version="1.1" viewBox="0 0 128 128" xmlns="http://www.w3.org/2000/svg">
 <g>
  <path d="m67.84 49.664v-33.152l9.9844 9.9844c1.5352 1.5352 3.9688 1.5352 5.5039 0s1.5352-3.9688 0-5.5039l-16.641-16.641c-0.76953-0.76953-1.6641-1.1523-2.6875-1.1523s-2.0469 0.38281-2.6875 1.1523l-16.641 16.641c-0.76953 0.76953-1.1523 1.6641-1.1523 2.6875 0 1.0234 0.38281 2.0469 1.1523 2.6875 1.5352 1.5352 3.9688 1.5352 5.5039 0l9.9844-9.9844v33.152c0 2.1758 1.793 3.8398 3.8398 3.8398 2.1758 0.12891 3.8398-1.5352 3.8398-3.7109z"/>
  <path d="m41.09 64c0 2.1758 1.793 3.8398 3.8398 3.8398h38.016c2.1758 0 3.8398-1.793 3.8398-3.8398 0-2.1758-1.793-3.8398-3.8398-3.8398h-37.891c-2.1758 0-3.9648 1.6641-3.9648 3.8398z"/>
  <path d="m83.328 107.01c1.5352-1.5352 1.5352-3.9688 0-5.5039s-3.9688-1.5352-5.5039 0l-9.9844 9.9844v-33.152c0-2.1758-1.793-3.8398-3.8398-3.8398-2.1758 0-3.8398 1.793-3.8398 3.8398v33.152l-9.9844-9.9844c-1.5352-1.5352-3.9688-1.5352-5.5039 0-0.76953 0.76953-1.1523 1.793-1.1523 2.6875 0 0.89453 0.38281 2.0469 1.1523 2.6875l16.641 16.641c0.76953 0.76953 1.6641 1.1523 2.6875 1.1523s2.0469-0.38281 2.6875-1.1523z"/>
 </g>
</svg>
