<svg xmlns:dc="http://purl.org/dc/elements/1.1/" xmlns:cc="http://creativecommons.org/ns#" xmlns:rdf="http://www.w3.org/1999/02/22-rdf-syntax-ns#" xmlns:svg="http://www.w3.org/2000/svg" xmlns="http://www.w3.org/2000/svg" version="1.1" viewBox="0 0 48 48" x="0px" y="0px"><g transform="translate(-0.81839003)"><path style="color:#000000;font-style:normal;font-variant:normal;font-weight:normal;font-stretch:normal;font-size:medium;line-height:normal;font-family:sans-serif;font-variant-ligatures:normal;font-variant-position:normal;font-variant-caps:normal;font-variant-numeric:normal;font-variant-alternates:normal;font-variant-east-asian:normal;font-feature-settings:normal;font-variation-settings:normal;text-indent:0;text-align:start;text-decoration:none;text-decoration-line:none;text-decoration-style:solid;text-decoration-color:#000000;letter-spacing:normal;word-spacing:normal;text-transform:none;writing-mode:lr-tb;direction:ltr;text-orientation:mixed;dominant-baseline:auto;baseline-shift:baseline;text-anchor:start;white-space:normal;shape-padding:0;shape-margin:0;inline-size:0;clip-rule:nonzero;display:inline;overflow:visible;visibility:visible;opacity:1;isolation:auto;mix-blend-mode:normal;color-interpolation:sRGB;color-interpolation-filters:linearRGB;solid-color:#000000;solid-opacity:1;vector-effect:none;fill:#000000;fill-opacity:1;fill-rule:nonzero;stroke:none;stroke-linecap:round;stroke-linejoin:round;stroke-miterlimit:4;stroke-dasharray:none;stroke-dashoffset:0;stroke-opacity:1;color-rendering:auto;image-rendering:auto;shape-rendering:auto;text-rendering:auto;enable-background:accumulate;stop-color:#000000;stop-opacity:1" d="M 9.20218,9 C 7.243,9 5.63577,10.612262 5.63577,12.572266 V 42.427734 C 5.63577,44.387738 7.243,46 9.20218,46 H 31.4346 c 1.95918,0 3.56641,-1.612262 3.56641,-3.572266 V 17.714844 A 1.0001,1.0001 0 0 0 34.74905,17.050781 L 27.90726,9.3359375 A 1.0001,1.0001 0 0 0 27.15921,9 Z m 0,2 h 16.10156 v 5 c 0,1.485143 1.2255,2.714844 2.71094,2.714844 h 4.98633 v 23.71289 C 33.00101,43.316873 32.31782,44 31.4346,44 H 9.20218 C 8.31896,44 7.63577,43.316873 7.63577,42.427734 V 12.572266 C 7.63577,11.683126 8.31896,11 9.20218,11 Z m 18.10156,0.669922 4.47461,5.044922 h -3.76367 c -0.40949,0 -0.71094,-0.300559 -0.71094,-0.714844 z"></path><path style="color:#000000;font-style:normal;font-variant:normal;font-weight:normal;font-stretch:normal;font-size:medium;line-height:normal;font-family:sans-serif;font-variant-ligatures:normal;font-variant-position:normal;font-variant-caps:normal;font-variant-numeric:normal;font-variant-alternates:normal;font-variant-east-asian:normal;font-feature-settings:normal;font-variation-settings:normal;text-indent:0;text-align:start;text-decoration:none;text-decoration-line:none;text-decoration-style:solid;text-decoration-color:#000000;letter-spacing:normal;word-spacing:normal;text-transform:none;writing-mode:lr-tb;direction:ltr;text-orientation:mixed;dominant-baseline:auto;baseline-shift:baseline;text-anchor:start;white-space:normal;shape-padding:0;shape-margin:0;inline-size:0;clip-rule:nonzero;display:inline;overflow:visible;visibility:visible;opacity:1;isolation:auto;mix-blend-mode:normal;color-interpolation:sRGB;color-interpolation-filters:linearRGB;solid-color:#000000;solid-opacity:1;vector-effect:none;fill:#000000;fill-opacity:1;fill-rule:nonzero;stroke:none;stroke-linecap:round;stroke-linejoin:round;stroke-miterlimit:4;stroke-dasharray:none;stroke-dashoffset:0;stroke-opacity:1;color-rendering:auto;image-rendering:auto;shape-rendering:auto;text-rendering:auto;enable-background:accumulate;stop-color:#000000;stop-opacity:1" d="M 18.20218,2 C 16.243,2 14.63577,3.6122621 14.63577,5.5722656 a 1,1 0 0 0 1,1 1,1 0 0 0 1,-1 C 16.63577,4.6831264 17.31896,4 18.20218,4 h 16.10156 v 5 c 0,1.485143 1.2255,2.714844 2.71094,2.714844 h 4.98633 v 24.71289 C 42.00101,37.316874 41.31782,38 40.4346,38 h -2.43555 a 1,1 0 0 0 -1,1 1,1 0 0 0 1,1 h 2.43555 c 1.95918,0 3.56641,-1.612262 3.56641,-3.572266 V 10.714844 A 1.0001,1.0001 0 0 0 43.74905,10.050781 L 36.90726,2.3359375 A 1.0001,1.0001 0 0 0 36.15921,2 Z m 18.10156,2.6699219 4.47461,5.0449219 H 37.01468 C 36.60519,9.7148438 36.30374,9.4142849 36.30374,9 Z"></path></g></svg>