<?xml version="1.0" encoding="UTF-8"?>
<svg width="512pt" height="512pt" version="1.1" viewBox="0 0 512 512" xmlns="http://www.w3.org/2000/svg">
 <path d="m266.54 383.61-135.8 1.2891v28.176h-0.019531v0.042969c-0.042969 5.1055 1.1836 8.7617 3.6719 10.961 2.6602 2.3555 7.043 3.4648 13.145 3.332 56.387 0 112.91-1.3594 169.31-1.6016 0.61328 0.011718 19.039 0.015625 34.785 0.007812 11.555-0.007812 21.664-0.023437 22.09-0.042968 5.0391-0.23828 8.6641-1.4922 10.867-3.75 2.168-2.2227 3.2344-5.7188 3.1992-10.48l-2.5703-198.83v-0.03125l-0.67969-52.559-38.492 0.55469 2.5547 197.59c0.0625 7.7969-2.0352 13.879-6.2969 18.246-4.2266 4.332-10.301 6.6875-18.219 7.0625l-0.35547 0.007813c-1.9102 0.015624-11.508 0.03125-22.332 0.035156-15.5 0.011718-33.535 0.007812-34.855-0.007813zm95.754 110.59-168.95 1.5977c-8.9414 0.19531-15.82-1.832-20.621-6.082-4.9805-4.4023-7.4375-10.824-7.3672-19.258 0.011719-6.0352 0.007812-12.074-0.003907-18.125-0.011718-4.6875-0.03125-9.3984-0.054687-14.121l-17.551 0.16797c-8.9414 0.19531-15.82-1.832-20.621-6.0859-4.9727-4.3945-7.4297-10.805-7.3711-19.215h-0.023437v-28.07l-22.137 0.20703c-0.50391 0.011718-1.0234 0.015624-1.5508 0.011718h-0.023438c-8.2344-0.066406-14.613-2.125-19.137-6.1719-4.6758-4.1914-7.1016-10.184-7.2734-17.98-0.007813-0.36328-0.011719-0.76172-0.007813-1.1758 0.078126-39.395-0.44531-79.344-0.96484-119.36-0.875-67.133-1.7578-134.46 0.19141-199.91 0.20312-6.9414 2.8945-12.52 7.125-16.645 4.4844-4.3711 10.648-6.9883 17.312-7.7383 0.20312-0.023437 0.40234-0.035156 0.60156-0.035156v-0.011719h165.86c1.6641 0 3.1523 0.73828 4.1602 1.9062l79.777 79.418c1.1211 1.1094 1.6562 2.5859 1.6172 4.0469l0.011719 0.80469 48.527 48.305c1.1172 1.1094 1.6562 2.5859 1.6172 4.0469l0.125 9.7109 43.859 43.664c1.1172 1.1094 1.6562 2.5859 1.6172 4.0469l3.3164 256.7c0.0625 7.7969-2.0352 13.879-6.2969 18.246-4.2266 4.332-10.301 6.6875-18.219 7.0625-0.41797 0.019531-10.68 0.035156-22.449 0.042968-15.543 0.011719-33.75 0.007813-35.094-0.003906zm-186.04-56.09c0.023438 4.7383 0.042969 9.4805 0.054688 14.227 0.015625 6.0664 0.015625 12.125 0.003906 18.168v0.042969c-0.039062 5.1055 1.1836 8.7617 3.6719 10.961 2.6602 2.3555 7.0469 3.4648 13.145 3.332 56.383 0 112.91-1.3594 169.31-1.6016 0.62109 0.015625 19.16 0.015625 34.941 0.007813 11.488-0.007813 21.508-0.023438 21.934-0.042969 5.0391-0.23828 8.6641-1.4922 10.867-3.75 2.168-2.2227 3.2344-5.7188 3.1992-10.48l-3.25-251.41-33.891 0.48828 2.5 193.39c0.0625 7.7969-2.0391 13.879-6.2969 18.246-4.2266 4.332-10.301 6.6875-18.219 7.0625-0.42188 0.019531-10.773 0.035156-22.605 0.042968-15.52 0.011719-33.613 0.007813-34.934-0.003906l-140.43 1.332zm219.85-231.03 26.344-0.37891-26.695-26.574 0.34766 26.953zm-50.613-89.02 0.41016 31.664 30.949-0.44531zm-220.76 255.94c0.16406-0.015625 0.32812-0.023438 0.5-0.023438 0.13281 0 0.26562 0.003906 0.39453 0.015625l141.06-1.3359c0.61328 0.015625 18.973 0.015625 34.703 0.007812 11.352-0.007812 21.324-0.019531 22.148-0.039062l0.023438-0.003906c5.0391-0.23828 8.6641-1.4922 10.871-3.75 2.168-2.2227 3.2344-5.7188 3.1992-10.48l-3.25-251.41-50.652 0.72656c-8.7031 0.003906-15.57-2.0117-20.605-6.0469-4.5742-3.668-7.457-8.8008-8.6445-15.398-0.27734-0.65625-0.42969-1.375-0.42969-2.1289l0.003907-1.0898c-0.007813-0.15625-0.007813-0.3125 0.003906-0.46484l0.17188-55.359h-160.12c-4.1602 0.53125-7.8984 2.1016-10.508 4.6445-2.2617 2.2031-3.6992 5.2422-3.8125 9.0781-1.9414 65.32-1.0664 132.5-0.19141 199.48 0.52344 40.035 1.0469 80 0.96484 119.51l0.007813 0.94141c0.10156 4.6133 1.3086 7.957 3.6211 10.027 2.4648 2.207 6.4414 3.3359 11.914 3.3789 0.39844 0.003906 0.82422 0 1.2734-0.011719h0.0625l27.293-0.26172zm201.96-277.88-61.535-61.258-0.14844 47.645c0.52734 4.8164 2.1875 8.3477 4.9883 10.59 3.0234 2.4219 7.582 3.6367 13.672 3.6406z"/>
</svg>
