<?xml version="1.0" encoding="UTF-8"?>
<svg width="512pt" height="512pt" version="1.1" viewBox="0 0 512 512" xmlns="http://www.w3.org/2000/svg">
 <path d="m232.9 119.34c3.8828 1.0898 7.6406 2.3906 11.254 3.8867 3.6562 1.5156 7.2773 3.293 10.848 5.3086 2.3125 1.3047 3.3125 4.0352 2.5195 6.4648l0.015624 0.007813c-1.3281 4.0664-1.5 8.418-0.51562 12.535 0.94922 3.9688 2.9805 7.7422 6.0898 10.852l0.023438 0.023437c3.1094 3.1133 6.8828 5.1406 10.852 6.0938 4.1172 0.98438 8.4688 0.8125 12.539-0.51562 2.6758-0.87109 5.5312 0.42188 6.6836 2.9141 1.9297 3.4453 3.6367 6.9453 5.0977 10.469 1.5195 3.6719 2.8398 7.4922 3.9375 11.438 0.70703 2.5664-0.52734 5.2109-2.8164 6.3594-3.7891 1.9258-6.9766 4.875-9.1914 8.4805-2.1406 3.4844-3.375 7.6016-3.375 12.02 0 4.4023 1.2344 8.5078 3.375 11.996l0.16016 0.27734c2.207 3.4922 5.332 6.3438 9.0352 8.2227 2.4336 1.2266 3.5586 4.0273 2.7656 6.543-1.0859 3.8828-2.3906 7.6406-3.8867 11.254-1.5156 3.6562-3.293 7.2773-5.3086 10.848-1.3008 2.3125-4.0352 3.3125-6.4648 2.5195l-0.007812 0.015625c-4.0664-1.3281-8.4219-1.5-12.535-0.51562-3.9727 0.94922-7.7422 2.9805-10.855 6.0938l-0.023437 0.023437c-3.1133 3.1133-5.1406 6.8828-6.0898 10.855-0.98438 4.1172-0.8125 8.4688 0.51562 12.539 0.86719 2.6719-0.42188 5.5312-2.9141 6.6797-3.4453 1.9297-6.9453 3.6367-10.473 5.1016-3.668 1.5195-7.4883 2.8398-11.434 3.9375-2.5664 0.70703-5.2109-0.52734-6.3633-2.8164-1.9258-3.793-4.875-6.9766-8.4805-9.1914-3.4844-2.1406-7.5977-3.375-12.02-3.375-4.4141 0-8.5312 1.2344-12.016 3.375-3.6055 2.2148-6.5547 5.3984-8.4766 9.1914-1.2266 2.4375-4.0273 3.5586-6.5469 2.7656-3.8828-1.0859-7.6367-2.3906-11.254-3.8867-3.6562-1.5156-7.2773-3.293-10.848-5.3086-2.3125-1.3008-3.3125-4.0352-2.5234-6.4648l-0.015624-0.003906c1.3242-4.0703 1.5-8.4219 0.51562-12.539-0.94531-3.9492-2.9844-7.7227-6.1133-10.855l-0.25391-0.26953c-3.0625-2.9727-6.7383-4.918-10.602-5.8438-4.1172-0.98438-8.4688-0.8125-12.539 0.51562-2.6719 0.87109-5.5312-0.42188-6.6797-2.9141-1.9297-3.4453-3.6367-6.9453-5.1016-10.473-1.5234-3.6719-2.8398-7.4883-3.9375-11.438-0.70703-2.5664 0.52734-5.2109 2.8164-6.3594 3.793-1.9258 6.9766-4.8711 9.1914-8.4766 2.1406-3.4844 3.375-7.6016 3.375-12.02 0-4.418-1.2344-8.5352-3.375-12.02-2.2148-3.6055-5.3984-6.5547-9.1953-8.4805-2.4336-1.2266-3.5586-4.0273-2.7617-6.5469 1.0859-3.8828 2.3906-7.6406 3.8867-11.254 1.5156-3.6562 3.293-7.2773 5.3086-10.848 1.3008-2.3125 4.0352-3.3125 6.4648-2.5195l0.003906-0.015625c4.0703 1.3281 8.4219 1.5 12.539 0.51562 3.9688-0.94922 7.7422-2.9805 10.852-6.0938l0.023437-0.023437c3.1133-3.1094 5.1406-6.8828 6.0938-10.852 0.98438-4.1172 0.8125-8.4688-0.51562-12.535-0.87109-2.6758 0.42188-5.5312 2.9141-6.6836 3.4453-1.9297 6.9453-3.6367 10.469-5.1016 3.668-1.5195 7.4883-2.8398 11.438-3.9375 2.5625-0.70703 5.207 0.52734 6.3594 2.8164 1.9258 3.793 4.875 6.9805 8.4805 9.1953l0.015624 0.011719 0.007813-0.011719c3.4844 2.1406 7.5938 3.375 11.996 3.375 4.418 0 8.5352-1.2383 12.02-3.375 3.6055-2.2148 6.5547-5.4023 8.4805-9.1953 1.2266-2.4375 4.0273-3.5586 6.5469-2.7656zm129.39 374.85-168.95 1.5977c-8.9453 0.19531-15.82-1.832-20.625-6.082-4.9805-4.4023-7.4375-10.824-7.3672-19.258 0.011719-6.0352 0.011719-12.074-0.003906-18.125-0.011718-4.6875-0.027344-9.3984-0.050781-14.121l-17.555 0.16797c-8.9414 0.19531-15.82-1.832-20.621-6.0859-4.9727-4.3945-7.4258-10.801-7.3672-19.215h-0.023437v-28.07l-22.137 0.20703c-0.50391 0.011719-1.0234 0.015625-1.5508 0.011719h-0.023438c-8.2344-0.066406-14.617-2.125-19.137-6.1719-4.6758-4.1914-7.1016-10.184-7.2734-17.98-0.007813-0.36328-0.011719-0.76172-0.007813-1.1758 0.078126-39.395-0.44141-79.344-0.96484-119.36-0.87891-67.133-1.7578-134.46 0.19141-199.91 0.20312-6.9414 2.8945-12.52 7.125-16.645 4.4844-4.3711 10.648-6.9883 17.312-7.7383 0.20312-0.023437 0.40234-0.035156 0.60156-0.035156v-0.011719h165.86c1.6641 0 3.1562 0.73828 4.1641 1.9062l79.777 79.418c1.1172 1.1094 1.6562 2.5859 1.6172 4.0469l0.011719 0.80469 48.523 48.305c1.1211 1.1133 1.6562 2.5859 1.6172 4.0469l0.12891 9.7109 43.859 43.664c1.1172 1.1094 1.6562 2.5859 1.6172 4.0469l3.3164 256.7c0.0625 7.7969-2.0391 13.879-6.2969 18.246-4.2266 4.332-10.301 6.6875-18.223 7.0625-0.41797 0.019531-10.676 0.035156-22.445 0.042968-15.543 0.011719-33.746 0.007813-35.094-0.003906zm-186.04-56.09c0.023438 4.7383 0.042969 9.4766 0.054688 14.227 0.015625 6.0664 0.015625 12.125 0.003906 18.168v0.042968c-0.039062 5.1055 1.1836 8.7617 3.6719 10.961 2.6602 2.3555 7.0469 3.4648 13.145 3.332 56.387 0 112.91-1.3594 169.31-1.6016 0.61719 0.015625 19.16 0.015625 34.941 0.007812 11.488-0.007812 21.508-0.023437 21.934-0.042969 5.0391-0.23828 8.6641-1.4922 10.867-3.75 2.168-2.2227 3.2344-5.7188 3.1992-10.48l-3.25-251.41-33.887 0.48828 2.5 193.39c0.0625 7.7969-2.0391 13.879-6.2969 18.246-4.2266 4.332-10.301 6.6875-18.223 7.0625-0.42187 0.019531-10.77 0.035157-22.605 0.042969-15.516 0.011719-33.609 0.007812-34.934-0.003906l-140.43 1.332zm208.96-225.39-0.003906-0.015626v-0.015624l-0.67969-52.559-38.492 0.55469 2.5547 197.59c0.0625 7.7969-2.0391 13.879-6.2969 18.246-4.2266 4.332-10.301 6.6875-18.223 7.0625l-0.35156 0.007812c-1.9102 0.015625-11.508 0.03125-22.332 0.035157-15.496 0.011718-33.531 0.007812-34.855-0.007813l-135.8 1.2891v28.176h-0.019531v0.042969c-0.042969 5.1055 1.1836 8.7617 3.6719 10.961 2.6602 2.3555 7.043 3.4648 13.145 3.332 56.383 0 112.91-1.3594 169.31-1.6016 0.61328 0.011718 19.035 0.015625 34.785 0.007812 11.555-0.007812 21.664-0.023437 22.09-0.042968 5.0391-0.23828 8.6641-1.4922 10.867-3.75 2.168-2.2227 3.2344-5.7188 3.1992-10.48l-2.5703-198.83zm10.891-5.6367 26.348-0.37891-26.695-26.574zm-271.37 166.91c0.16406-0.015625 0.33203-0.023437 0.5-0.023437 0.13281 0 0.26562 0.003906 0.39453 0.015625l141.06-1.3359c0.61328 0.015625 18.973 0.015625 34.703 0.007813 11.352-0.007813 21.328-0.019532 22.152-0.039063l0.023437-0.003906c5.0391-0.23828 8.6641-1.4922 10.867-3.75 2.168-2.2227 3.2344-5.7188 3.1992-10.48l-3.25-251.41-50.656 0.72656c-8.6992 0.003907-15.57-2.0117-20.602-6.0469-4.5742-3.668-7.457-8.8008-8.6484-15.398-0.27734-0.65625-0.42969-1.375-0.42969-2.1289l0.003906-1.0898c-0.007812-0.15625-0.007812-0.3125 0.003907-0.46484l0.17187-55.359h-160.12c-4.1602 0.53125-7.8984 2.0977-10.508 4.6445-2.2617 2.2031-3.6992 5.2422-3.8125 9.0781-1.9414 65.32-1.0664 132.5-0.19141 199.48 0.52344 40.035 1.043 80 0.96484 119.51l0.007812 0.94141c0.10156 4.6133 1.3086 7.957 3.6211 10.027 2.4648 2.207 6.4414 3.3359 11.914 3.3789 0.39844 0.003907 0.82031 0 1.2734-0.011719h0.0625l27.289-0.26172zm221.17-224.27 30.953-0.44531-31.359-31.219 0.41016 31.664zm-19.199-53.602-61.535-61.258-0.14844 47.645c0.52344 4.8164 2.1875 8.3477 4.9883 10.59 3.0195 2.4219 7.582 3.6367 13.672 3.6406zm-120.84 72.699c12.941 0 24.66 5.2461 33.141 13.727 8.4805 8.4805 13.73 20.199 13.73 33.145 0 12.941-5.2461 24.656-13.73 33.141-8.4805 8.4805-20.199 13.73-33.141 13.73-12.941 0-24.656-5.2461-33.141-13.73-8.4805-8.4844-13.73-20.199-13.73-33.141s5.2461-24.66 13.73-33.145c8.4805-8.4805 20.199-13.727 33.141-13.727zm27.957 18.914c-7.1523-7.1523-17.035-11.578-27.957-11.578-10.918 0-20.801 4.4219-27.953 11.578-7.1523 7.1523-11.578 17.035-11.578 27.957 0 10.918 4.4258 20.801 11.578 27.953 7.1523 7.1523 17.035 11.578 27.953 11.578s20.801-4.4258 27.957-11.578c7.1523-7.1523 11.578-17.035 11.578-27.953 0-10.918-4.4258-20.805-11.578-27.957zm6.1289-54.352c-2.0391-0.84375-4.1055-1.6172-6.1914-2.3047-2.6836 3.8594-6.1445 7.1367-10.16 9.6016-5.1719 3.1758-11.246 5.0078-17.734 5.0078-6.5 0-12.582-1.832-17.754-5.0078l0.007813-0.011719c-4.0078-2.4648-7.4648-5.7383-10.145-9.5898-2.0859 0.6875-4.1484 1.457-6.1914 2.3047-2.0742 0.85938-4.082 1.7812-6.0156 2.7539 0.82422 4.6133 0.69141 9.3711-0.40625 13.957-1.4102 5.8945-4.4062 11.48-8.9844 16.07l-0.03125 0.03125c-4.5898 4.5859-10.18 7.582-16.078 8.9922-4.5859 1.0938-9.3438 1.2305-13.953 0.40234-0.97266 1.9375-1.8906 3.9414-2.75 6.0156-0.84375 2.0391-1.6172 4.1055-2.3047 6.1914 3.8594 2.6836 7.1367 6.1484 9.6016 10.16 3.1758 5.1719 5.0078 11.25 5.0078 17.734 0 6.4883-1.832 12.562-5.0078 17.734-2.4648 4.0117-5.7422 7.4766-9.6016 10.156 0.69141 2.0859 1.457 4.1484 2.3047 6.1875 0.85938 2.0742 1.7773 4.082 2.7539 6.0195 4.6133-0.82812 9.3711-0.69141 13.953 0.40625 5.7656 1.3789 11.234 4.2734 15.766 8.6836 0.11328 0.097656 0.22656 0.19922 0.33594 0.30859 4.5781 4.5781 7.5781 10.176 8.9922 16.098 1.0938 4.5859 1.2305 9.3438 0.40625 13.957 1.9375 0.97266 3.9453 1.8906 6.0195 2.7539 2.0391 0.84375 4.1016 1.6133 6.1875 2.3047 2.6836-3.8594 6.1445-7.1367 10.16-9.6016 5.1719-3.1758 11.246-5.0078 17.734-5.0078 6.4883 0 12.562 1.832 17.734 5.0078 4.0117 2.4648 7.4766 5.7422 10.16 9.6016 2.0859-0.69141 4.1484-1.4609 6.1914-2.3047 2.0742-0.85938 4.082-1.7812 6.0195-2.7539-0.82812-4.6133-0.69141-9.375 0.40625-13.957 1.4102-5.8945 4.4023-11.48 8.9844-16.07l0.03125-0.03125c4.5938-4.5859 10.18-7.5859 16.078-8.9922 4.5859-1.0977 9.3438-1.2305 13.957-0.40625 0.97266-1.9375 1.8906-3.9453 2.75-6.0195 0.84375-2.0391 1.6172-4.1016 2.3047-6.1875-3.7461-2.6055-6.9453-5.9453-9.3828-9.8125l-0.21484-0.32422c-3.1758-5.1719-5.0078-11.254-5.0078-17.754 0-6.4883 1.832-12.562 5.0078-17.734 2.4648-4.0156 5.7422-7.4766 9.6016-10.16-0.69141-2.0859-1.457-4.1484-2.3047-6.1914-0.85938-2.0742-1.7773-4.082-2.75-6.0156-4.6133 0.82812-9.375 0.69141-13.957-0.40234-5.8945-1.4102-11.477-4.4062-16.07-8.9844l-0.03125-0.03125c-4.5859-4.5938-7.582-10.18-8.9922-16.078-1.0977-4.5859-1.2305-9.3438-0.40625-13.957-1.9375-0.97266-3.9453-1.8906-6.0195-2.7539z"/>
</svg>
