<?xml version="1.0" encoding="UTF-8"?>
<svg width="128pt" height="128pt" version="1.1" viewBox="0 0 128 128" xmlns="http://www.w3.org/2000/svg">
 <path d="m106.39 46.965-2.9336 67.906c-0.31641 7.3359-6.3516 13.121-13.695 13.129h-52.309c-7.3398-0.007812-13.375-5.793-13.695-13.129l-2.9336-67.906h-0.34766c-4.5273-0.007813-8.1992-3.6797-8.207-8.207v-6.0703c0.019531-7.8789 6.4023-14.258 14.281-14.273h15.586c1.1953-6.9297 5.6016-12.879 11.879-16.043 6.2773-3.1602 13.684-3.1602 19.961 0 6.2773 3.1641 10.684 9.1133 11.879 16.043h15.586c7.875 0.015626 14.258 6.3984 14.277 14.273v6.0703c-0.007812 4.5273-3.6758 8.1953-8.2031 8.207zm-46.656 15.586v42.332c0.039063 2.0508 1.7109 3.6953 3.7656 3.6953 2.0508 0 3.7266-1.6445 3.7656-3.6953v-42.332c-0.039062-2.0508-1.7148-3.6953-3.7656-3.6953-2.0547 0-3.7266 1.6445-3.7656 3.6953zm21.656 0v42.332c0 2.0781 1.6875 3.7617 3.7656 3.7617s3.7656-1.6836 3.7656-3.7617v-42.332c0-2.0781-1.6875-3.7617-3.7656-3.7617s-3.7656 1.6836-3.7656 3.7617zm-43.312 0v42.332c0.035157 2.0508 1.7109 3.6953 3.7656 3.6953 2.0508 0 3.7266-1.6445 3.7656-3.6953v-42.332c-0.039062-2.0508-1.7148-3.6953-3.7656-3.6953-2.0547 0-3.7305 1.6445-3.7656 3.6953zm11.758-44.141 28.32 0.003906c-1.1172-4.1914-4.0312-7.6758-7.9609-9.5078-3.9297-1.8359-8.4688-1.8359-12.398 0-3.9297 1.832-6.8438 5.3164-7.9609 9.5078zm-4.2461 7.5312h-19.039c-3.7188 0.015625-6.7305 3.0273-6.7461 6.7461v6.0703c0.007812 0.37109 0.30469 0.66797 0.67578 0.67578h87.035c0.37109-0.007813 0.66797-0.30469 0.67578-0.67578v-6.0703c-0.015624-3.7188-3.0273-6.7305-6.7461-6.7461zm-17.25 21.023 2.918 67.586v-0.003906c0.14062 3.3203 2.875 5.9336 6.1953 5.9258h52.309c3.3203 0.007813 6.0586-2.6055 6.1953-5.9258l2.918-67.586z" fill-rule="evenodd"/>
</svg>
