<?xml version="1.0" encoding="UTF-8"?>
<svg width="512pt" height="512pt" version="1.1" viewBox="0 0 512 512" xmlns="http://www.w3.org/2000/svg">
 <path d="m76.801 256h24.488c7.0469 0 12.801 5.7461 12.801 12.801v116.57c0 6.3555 5.1953 11.559 11.559 11.559h260.71c6.3633 0 11.559-5.2031 11.559-11.559v-116.57c0-7.0547 5.7461-12.801 12.801-12.801h24.488c14.078 0 25.602 11.52 25.602 25.602v153.6c0 14.078-11.52 25.602-25.602 25.602h-358.4c-14.086 0-25.602-11.52-25.602-25.602v-153.6c0-14.078 11.512-25.602 25.602-25.602zm85.902-42.426h39.617c4.875 0 8.8516-3.9727 8.8516-8.8516v-144.67c0-4.8711 3.9727-8.8516 8.8594-8.8516h71.949c4.8828 0 8.8516 3.9805 8.8516 8.8516v144.67c0 4.875 3.9805 8.8516 8.8594 8.8516h39.617c3.3906 0 6.2969 1.7656 7.8594 4.7734 1.5547 3.0078 1.332 6.4062-0.62109 9.1719l-93.301 132.6c-1.707 2.4375-4.2617 3.7617-7.2383 3.7617-2.9766 0-5.5312-1.3242-7.2461-3.7617l-93.293-132.6c-1.9531-2.7656-2.1758-6.1641-0.62109-9.1719 1.5625-3.0078 4.4688-4.7734 7.8594-4.7734z" fill="#fff" fill-rule="evenodd"/>
</svg>
