<?xml version="1.0" encoding="UTF-8"?>
<svg width="128pt" height="128pt" version="1.1" viewBox="0 0 128 128" xmlns="http://www.w3.org/2000/svg">
 <path d="m96 57.707c-2.9453 0-5.332 2.3867-5.332 5.332v38.293c0 1.4141-0.5625 2.7734-1.5625 3.7734s-2.3594 1.5625-3.7734 1.5625h-58.664c-2.9453 0-5.3359-2.3906-5.3359-5.3359v-58.664c0-2.9453 2.3906-5.3359 5.3359-5.3359h38.293c2.9453 0 5.332-2.3867 5.332-5.332s-2.3867-5.332-5.332-5.332h-38.293c-4.2461 0-8.3125 1.6836-11.316 4.6836-3 3.0039-4.6836 7.0703-4.6836 11.316v58.664c0 4.2461 1.6836 8.3125 4.6836 11.316 3.0039 3 7.0703 4.6836 11.316 4.6836h58.664c4.2461 0 8.3125-1.6836 11.316-4.6836 3-3.0039 4.6836-7.0703 4.6836-11.316v-38.293c0-1.4141-0.5625-2.7695-1.5625-3.7695s-2.3555-1.5625-3.7695-1.5625zm20.906-43.734c-0.53906-1.3008-1.5781-2.3398-2.8789-2.8789-0.64062-0.27344-1.332-0.41797-2.0273-0.42578h-32c-2.9453 0-5.332 2.3867-5.332 5.332s2.3867 5.332 5.332 5.332h19.148l-54.934 54.883c-1.0117 1-1.5781 2.3633-1.5781 3.7852s0.56641 2.7852 1.5781 3.7852c1 1.0117 2.3633 1.5781 3.7852 1.5781s2.7852-0.56641 3.7852-1.5781l54.883-54.934v19.148c0 2.9453 2.3867 5.332 5.332 5.332s5.332-2.3867 5.332-5.332v-32c-0.007812-0.69531-0.15234-1.3867-0.42578-2.0273z"/>
</svg>
