<?xml version="1.0" encoding="UTF-8"?>
<svg width="128pt" height="128pt" version="1.1" viewBox="0 0 128 128" xmlns="http://www.w3.org/2000/svg">
 <g fill="#007ab1">
  <path d="m112 58.668c-2.9453 0-5.332 2.3867-5.332 5.332v42.668h-85.336v-85.336h42.668c2.9453 0 5.332-2.3867 5.332-5.332s-2.3867-5.332-5.332-5.332h-48c-2.9453 0-5.332 2.3867-5.332 5.332v96c0 1.4141 0.5625 2.7695 1.5625 3.7695s2.3555 1.5625 3.7695 1.5625h96c1.4141 0 2.7695-0.5625 3.7695-1.5625s1.5625-2.3555 1.5625-3.7695v-48c0-1.4141-0.5625-2.7695-1.5625-3.7695s-2.3555-1.5625-3.7695-1.5625z"/>
  <path d="m114.04 11.078c-0.64844-0.26953-1.3398-0.40625-2.0391-0.41016h-26.668c-2.9453 0-5.332 2.3867-5.332 5.332s2.3867 5.332 5.332 5.332h13.793l-38.895 38.895v0.003907c-1.0312 0.99219-1.6172 2.3594-1.6289 3.7891-0.011718 1.4297 0.55078 2.8047 1.5625 3.8164 1.0117 1.0117 2.3867 1.5742 3.8164 1.5625 1.4297-0.011719 2.7969-0.59766 3.7891-1.6289l38.898-38.895v13.793c0 2.9453 2.3867 5.332 5.332 5.332s5.332-2.3867 5.332-5.332v-26.668c0-2.1562-1.3008-4.0977-3.293-4.9219z"/>
 </g>
</svg>
