<?xml version="1.0" encoding="UTF-8"?>
<svg width="512pt" height="512pt" version="1.1" viewBox="0 0 512 512" xmlns="http://www.w3.org/2000/svg">
 <path d="m371.14 485.47c28.719 0 54.723-11.641 73.543-30.461 18.82-18.82 30.461-44.824 30.461-73.543 0-28.723-11.641-54.723-30.461-73.547-18.82-18.82-44.824-30.465-73.543-30.465-28.723 0-54.723 11.645-73.547 30.465-18.82 18.82-30.461 44.824-30.461 73.547 0 28.719 11.641 54.723 30.461 73.543 18.82 18.82 44.824 30.461 73.547 30.461zm-82.492-2.2852c3.0273-0.023438 5.5 2.4102 5.5234 5.4414 0.023437 3.0273-2.4102 5.5-5.4375 5.5234l-221.69 2.1016c-11.285 0.24609-19.914-2.2695-25.879-7.5508-6.1406-5.4336-9.1719-13.422-9.0898-23.965 0.10156-51.676-0.57812-104.06-1.2656-156.54-1.1484-88.016-2.3008-176.29 0.25-262.1 0.25391-8.6172 3.5898-15.539 8.8281-20.648 5.5977-5.4609 13.328-8.7305 21.695-9.6758 0.20312-0.023438 0.40234-0.03125 0.60156-0.035156v-0.007813h217.51c1.6641 0 3.1523 0.73438 4.1641 1.9023l104.71 104.24c1.1172 1.1133 1.6562 2.5859 1.6172 4.0469l1.5898 122.95c0.035156 3.0273-2.3906 5.5078-5.418 5.543-3.0273 0.035157-5.5078-2.3906-5.543-5.4141l-1.5234-117.68-68.113 0.97656c-11.008 0.003907-19.66-2.5156-25.949-7.5586-5.7109-4.5781-9.2969-11.031-10.766-19.359-0.32422-0.69922-0.50391-1.4766-0.50391-2.2969l0.007813-1.4883c-0.007813-0.16016-0.007813-0.32031 0.003906-0.47656l0.22656-74.391h-211.77c-5.8711 0.72266-11.168 2.9492-14.887 6.5781-3.2734 3.1914-5.3555 7.5703-5.5156 13.082-2.5469 85.68-1.3984 173.8-0.25 261.67 0.6875 52.5 1.3711 104.91 1.2656 156.71v0.042969c-0.058594 7.2148 1.7422 12.438 5.3906 15.664 3.8242 3.3828 9.9609 4.9844 18.402 4.7969l221.82-2.1016zm82.961-362.71-86.473-86.082-0.20703 66.68c0.73047 6.8281 3.125 11.871 7.1797 15.121 4.2773 3.4297 10.617 5.1445 19.016 5.1484zm-37.363 249.55h14.098c3.0391 0 5.5039 2.4648 5.5039 5.5039v63.477c0 0.65625 0.25781 1.2383 0.66797 1.6484l0.023437 0.023438c0.41016 0.41016 0.99609 0.66797 1.6484 0.66797h29.906c0.64844 0 1.2344-0.26172 1.6602-0.67578l-0.011719-0.011719c0.42578-0.42578 0.6875-1.0078 0.6875-1.6484v-63.477c0-3.0391 2.4648-5.5039 5.5039-5.5039h14.102c0.50781 0 0.93359-0.10547 1.2539-0.30078 0.33984-0.20703 0.63281-0.54297 0.85547-0.98438l0.074219-0.14453c0.14844-0.35937 0.20703-0.74219 0.17578-1.1133-0.035156-0.41406-0.19531-0.82812-0.47656-1.2031l-36.895-49.551c-0.24609-0.33203-0.51953-0.57031-0.80078-0.71484-0.26953-0.13672-0.63672-0.20703-1.082-0.20703-0.44531 0-0.80859 0.070312-1.0781 0.20703-0.28516 0.14453-0.55469 0.38281-0.80078 0.71484l-36.895 49.551c-0.28125 0.375-0.4375 0.78906-0.47266 1.1992-0.039063 0.42969 0.046875 0.87109 0.25 1.2812 0.21094 0.42188 0.50781 0.75 0.85547 0.96484 0.31641 0.19531 0.74609 0.30078 1.2539 0.30078zm8.5938 11.008h-8.5938c-2.5352 0-4.9297-0.69531-7.0156-1.9805-2.0547-1.2695-3.7422-3.1016-4.8945-5.3945-1.1562-2.3008-1.6211-4.7461-1.4102-7.1289 0.20703-2.3984 1.0898-4.7305 2.625-6.7891l36.895-49.551c1.2812-1.7188 2.875-3.0586 4.7148-3.9805 1.8516-0.92969 3.8711-1.4102 5.9805-1.4102 2.1172 0 4.1328 0.48047 5.9844 1.4102 1.8359 0.92187 3.4336 2.2617 4.7148 3.9805l36.895 49.551c1.5312 2.0586 2.4141 4.3906 2.625 6.7891 0.19531 2.2539-0.21094 4.5664-1.2383 6.7617l-0.17578 0.38672c-1.1445 2.2734-2.832 4.1016-4.8984 5.3711-2.082 1.2812-4.4805 1.9805-7.0117 1.9805h-8.5977v57.973c0 3.6758-1.4961 7.0156-3.9102 9.4297l-0.011719-0.011719-0.011719 0.011719c-2.4141 2.4141-5.7461 3.9141-9.4102 3.9141h-29.906c-3.6484 0-6.9727-1.4922-9.3984-3.8984l-0.035156-0.035157c-2.418-2.4258-3.9141-5.7578-3.9141-9.4102v-57.973zm107.03 79.164c-20.152 20.148-47.988 32.609-78.73 32.609-30.746 0-58.582-12.461-78.734-32.609-20.148-20.152-32.609-47.988-32.609-78.73 0-30.746 12.461-58.582 32.609-78.734 20.152-20.148 47.988-32.613 78.734-32.613 30.742 0 58.582 12.465 78.73 32.613 20.148 20.152 32.613 47.988 32.613 78.734 0 30.742-12.465 58.582-32.613 78.73z"/>
</svg>
