<?xml version="1.0" encoding="UTF-8"?>
<svg width="512pt" height="512pt" version="1.1" viewBox="0 0 512 512" xmlns="http://www.w3.org/2000/svg">
 <path d="m238.93 173.87h34.141c2.9414 0 5.6133 1.1953 7.543 3.1289 1.9297 1.9297 3.1289 4.5977 3.1289 7.5469v31.664c0 2.9336-1.207 5.5898-3.1328 7.5156-1.9492 1.9492-4.6289 3.1602-7.5391 3.1602h-34.141c-2.9102 0-5.5938-1.207-7.543-3.1602-1.9258-1.9258-3.1328-4.5859-3.1328-7.5156v-31.664c0-2.9453 1.1953-5.6133 3.1289-7.5469 1.9297-1.9297 4.6055-3.1289 7.5469-3.1289zm93.68 320.29-221.6 2.0977c-11.285 0.24609-19.914-2.2695-25.883-7.5508-6.1406-5.4336-9.1719-13.422-9.0898-23.965 0.10156-51.676-0.57812-104.06-1.2656-156.54-1.1484-88.016-2.3008-176.29 0.25-262.1 0.25781-8.6172 3.5898-15.539 8.8281-20.648 5.5977-5.4609 13.328-8.7305 21.699-9.6758 0.20312-0.023438 0.40234-0.03125 0.60156-0.035157v-0.007812h217.51c1.6641 0 3.1523 0.73438 4.1641 1.9023l104.71 104.24c1.1172 1.1133 1.6562 2.5859 1.6172 4.0469l4.3516 336.71c0.078126 9.7539-2.5156 17.328-7.7734 22.723-5.2266 5.3594-12.812 8.2734-22.75 8.7461-0.55469 0.027344-14.102 0.042969-29.59 0.054688-20.418 0.011718-44.234 0.011718-45.781-0.007813zm-221.75-8.8633 221.91-2.1016c0.80859 0.019531 24.965 0.019531 45.625 0.007812 15.207-0.011718 28.516-0.027343 29.074-0.054687 7.0586-0.33203 12.191-2.1484 15.398-5.4336 3.168-3.25 4.7305-8.2344 4.6797-14.961l-4.2852-331.42-68.113 0.97656c-11.008 0.003906-19.66-2.5156-25.949-7.5586-5.7109-4.5781-9.3008-11.031-10.766-19.359-0.32031-0.69922-0.50391-1.4766-0.50391-2.2969l0.003907-1.4883c-0.007813-0.16016-0.007813-0.32031 0.003906-0.47656l0.23047-74.391h-211.78c-5.8672 0.72266-11.168 2.9492-14.887 6.5781-3.2695 3.1914-5.3555 7.5703-5.5156 13.082-2.5469 85.68-1.3984 173.8-0.25 261.67 0.6875 52.5 1.3711 104.91 1.2656 156.71v0.042968c-0.058594 7.2148 1.7422 12.438 5.3906 15.664 3.8242 3.3828 9.9609 4.9844 18.402 4.7969h0.066406zm304.71-364.81-86.469-86.082-0.20703 66.68c0.73047 6.8281 3.125 11.871 7.1758 15.121 4.2773 3.4297 10.617 5.1445 19.016 5.1484zm-176.64 127.38h34.141c2.9297 0 5.6016 1.2031 7.5469 3.1523 1.9297 1.9297 3.125 4.5938 3.125 7.5273v124.47c0 2.9336-1.1992 5.5938-3.1289 7.5273-1.9453 1.9453-4.6172 3.1523-7.543 3.1523h-34.141c-2.9258 0-5.6016-1.2031-7.5469-3.1523-1.9297-1.9336-3.1289-4.5938-3.1289-7.5273v-124.47c0-2.9336 1.1953-5.5977 3.125-7.5273 1.9453-1.9492 4.6172-3.1523 7.5469-3.1523zm33.809 11.004h-33.477v123.82h33.477zm0-73.992h-33.477v31h33.477z"/>
</svg>
