<?xml version="1.0" encoding="UTF-8"?>
<svg width="128pt" height="128pt" version="1.1" viewBox="0 0 128 128" xmlns="http://www.w3.org/2000/svg">
 <g>
  <path d="m108.8 63.871c0 24.703-20.098 44.801-44.801 44.801s-44.801-20.098-44.801-44.801 20.098-44.801 44.801-44.801 44.801 20.098 44.801 44.801zm-7.6797 0c0-20.48-16.641-37.121-37.121-37.121s-37.121 16.641-37.121 37.121c0 20.48 16.641 37.121 37.121 37.121 20.48 0.12891 37.121-16.641 37.121-37.121z"/>
  <path d="m64 57.344c-2.1758 0-3.8398 1.6641-3.8398 3.8398v19.586c0 2.1758 1.6641 3.8398 3.8398 3.8398s3.8398-1.6641 3.8398-3.8398v-19.586c0-2.1758-1.6641-3.8398-3.8398-3.8398z"/>
  <path d="m64 43.266c-1.0234 0-2.0469 0.38281-2.6875 1.1523-0.76953 0.63672-1.1523 1.6602-1.1523 2.6875 0 0.25781 0 0.51172 0.12891 0.76953 0 0.25781 0.12891 0.51172 0.25781 0.76953 0.12891 0.25781 0.25781 0.38281 0.38281 0.64062 0.12891 0.25781 0.25781 0.38281 0.51172 0.64062 1.4062 1.4062 3.9688 1.4062 5.375 0 0.12891-0.12891 0.38281-0.38281 0.51172-0.64062 0.12891-0.25781 0.25781-0.38281 0.38281-0.64062 0.12891-0.25781 0.12891-0.51172 0.25781-0.76953 0-0.25781 0.12891-0.51172 0.12891-0.76953 0-1.0234-0.38281-2.0469-1.1523-2.6875-0.89844-0.76953-1.9219-1.1523-2.9453-1.1523z"/>
 </g>
</svg>
