<?xml version="1.0" encoding="UTF-8"?>
<svg width="128pt" height="128pt" version="1.1" viewBox="0 0 128 128" xmlns="http://www.w3.org/2000/svg">
 <path d="m6.3984 106.24c0-4.6562 2.8086-8.8594 7.1133-10.641 4.3047-1.7852 9.2578-0.79688 12.555 2.4961 3.293 3.2969 4.2812 8.25 2.4961 12.555-1.7812 4.3047-5.9844 7.1133-10.641 7.1133-6.3633 0-11.523-5.1602-11.523-11.523zm11.52-72.961 0.003906 0.003906c4.6562 0 8.8594-2.8086 10.641-7.1133 1.7852-4.3047 0.79688-9.2578-2.4961-12.555-3.2969-3.293-8.25-4.2812-12.555-2.4961-4.3047 1.7812-7.1133 5.9844-7.1133 10.645 0 6.3594 5.1602 11.52 11.523 11.52zm0 42.238 0.003906 0.003906c4.6562 0 8.8594-2.8047 10.641-7.1094 1.7852-4.3047 0.79688-9.2617-2.4961-12.555-3.2969-3.2969-8.25-4.2812-12.555-2.5-4.3047 1.7852-7.1133 5.9844-7.1133 10.645 0 6.3633 5.1602 11.52 11.523 11.52zm38.402-46.074h57.602c4.2383 0 7.6797-3.4414 7.6797-7.6797 0-4.2422-3.4414-7.6836-7.6797-7.6836h-57.602c-4.2422 0-7.6797 3.4414-7.6797 7.6836 0 4.2383 3.4375 7.6797 7.6797 7.6797zm0 42.238h57.602c4.2383 0 7.6797-3.4375 7.6797-7.6797s-3.4414-7.6797-7.6797-7.6797h-57.602c-4.2422 0-7.6797 3.4375-7.6797 7.6797s3.4375 7.6797 7.6797 7.6797zm0 42.238 57.602 0.003906c4.2383 0 7.6797-3.4414 7.6797-7.6836 0-4.2383-3.4414-7.6797-7.6797-7.6797h-57.602c-4.2422 0-7.6797 3.4414-7.6797 7.6797 0 4.2422 3.4375 7.6836 7.6797 7.6836z"/>
</svg>
