<?xml version="1.0" encoding="UTF-8"?>
<svg width="128pt" height="128pt" version="1.1" viewBox="0 0 128 128" xmlns="http://www.w3.org/2000/svg">
 <path d="m72.594 97.492c0 1.4102-1.1484 2.5586-2.5586 2.5586h-44.801c-1.4102 0-2.5586-1.1484-2.5586-2.5586l-0.003906-66.984c0-1.4102 1.1484-2.5586 2.5586-2.5586h44.801c1.4102 0 2.5586 1.1484 2.5586 2.5586v19.805h7.6797l0.003907-19.805c0-5.6445-4.5938-10.238-10.238-10.238h-44.801c-5.6445 0-10.238 4.5938-10.238 10.238v66.984c0 5.6445 4.5938 10.238 10.238 10.238h44.801c5.6445 0 10.238-4.5938 10.238-10.238v-19.801h-7.6797zm19.297-54.609-5.4297 5.4297 11.844 11.848h-56.008v7.6797h56.012l-11.848 11.848 5.4297 5.4297 21.117-21.117z"/>
</svg>
