<?xml version="1.0" encoding="UTF-8"?>
<svg width="512pt" height="512pt" version="1.1" viewBox="0 0 512 512" xmlns="http://www.w3.org/2000/svg">
 <g>
  <path d="m114.91 444.47c13.738 0 26.91-5.457 36.625-15.172 9.7109-9.7109 15.168-22.883 15.168-36.621 0-13.734-5.457-26.91-15.168-36.621-9.7148-9.7148-22.887-15.168-36.621-15.168-13.738 0-26.91 5.457-36.625 15.168-9.7109 9.7148-15.168 22.887-15.168 36.621 0.015624 13.734 5.4766 26.898 15.188 36.605 9.707 9.7109 22.871 15.172 36.602 15.188zm0-90.781v-0.003906c10.344 0 20.262 4.1094 27.574 11.422s11.418 17.227 11.418 27.57c0 10.34-4.1055 20.258-11.418 27.57s-17.23 11.422-27.57 11.422-20.258-4.1094-27.57-11.422c-7.3125-7.3086-11.422-17.227-11.422-27.57 0.011719-10.336 4.1211-20.246 11.434-27.559 7.3086-7.3086 17.219-11.422 27.555-11.434z"/>
  <path d="m307.79 392.68c0-13.734-5.457-26.906-15.168-36.621-9.7109-9.7109-22.887-15.168-36.621-15.168s-26.91 5.457-36.621 15.168c-9.7109 9.7148-15.168 22.887-15.168 36.621 0 13.738 5.457 26.91 15.168 36.621 9.7109 9.7148 22.887 15.172 36.621 15.172 13.73-0.015625 26.895-5.4805 36.602-15.188 9.7109-9.7109 15.172-22.875 15.188-36.605zm-51.789 38.992c-10.34 0-20.258-4.1094-27.57-11.422-7.3125-7.3086-11.422-17.227-11.422-27.57 0-10.34 4.1094-20.258 11.422-27.57 7.3086-7.3125 17.227-11.422 27.57-11.422 10.34 0 20.258 4.1094 27.57 11.422s11.422 17.23 11.418 27.57c-0.007812 10.34-4.1211 20.25-11.43 27.559-7.3125 7.3086-17.223 11.422-27.559 11.434z"/>
  <path d="m448.88 392.68c0-13.734-5.457-26.906-15.168-36.621-9.7148-9.7109-22.887-15.168-36.621-15.168-13.738 0-26.91 5.457-36.621 15.168-9.7148 9.7148-15.172 22.887-15.172 36.621 0 13.738 5.457 26.91 15.172 36.621 9.7109 9.7148 22.883 15.172 36.621 15.172 13.73-0.015625 26.895-5.4805 36.602-15.188 9.7109-9.7109 15.172-22.875 15.188-36.605zm-51.789 38.992c-10.344 0-20.262-4.1094-27.574-11.422-7.3125-7.3086-11.418-17.227-11.418-27.57 0-10.34 4.1055-20.258 11.418-27.57s17.23-11.422 27.57-11.422c10.344 0 20.262 4.1094 27.574 11.422s11.418 17.23 11.418 27.57c-0.011719 10.34-4.1211 20.25-11.434 27.559-7.3086 7.3086-17.219 11.422-27.555 11.434z"/>
  <path d="m402.41 273.65v39.336c0 3.5352 2.8672 6.4023 6.4023 6.4023s6.3984-2.8672 6.3984-6.4023v-39.336c-0.011719-9.4531-3.7695-18.516-10.453-25.199-6.6836-6.6836-15.746-10.441-25.195-10.453h-117.17v-55.129c0-3.5352-2.8633-6.4023-6.3984-6.4023s-6.3984 2.8672-6.3984 6.4023v55.129h-117.17c-9.4492 0.011719-18.512 3.7695-25.195 10.453-6.6836 6.6836-10.441 15.746-10.453 25.199v39.336c0 3.5352 2.8633 6.4023 6.3984 6.4023s6.4023-2.8672 6.4023-6.4023v-39.336c0.003906-6.0586 2.4141-11.867 6.6992-16.152 4.2852-4.2812 10.09-6.6914 16.148-6.6992h117.17v62.188c0 3.5352 2.8633 6.4023 6.3984 6.4023s6.3984-2.8672 6.3984-6.4023v-62.188h117.17c6.0586 0.007813 11.863 2.418 16.148 6.6992 4.2852 4.2852 6.6953 10.094 6.6992 16.152z"/>
  <path d="m189.45 67.531c-4.2422 0.007812-8.3086 1.6914-11.309 4.6914s-4.6875 7.0664-4.6914 11.309v59.48c0.003907 4.2422 1.6914 8.3086 4.6914 11.309 3 2.9961 7.0664 4.6836 11.309 4.6914h133.11c4.2422-0.007813 8.3086-1.6953 11.309-4.6914 3-3 4.6875-7.0664 4.6914-11.309v-59.48c-0.003907-4.2422-1.6914-8.3086-4.6914-11.309s-7.0664-4.6836-11.309-4.6914zm136.31 16v59.48c0 1.7656-1.4336 3.1953-3.1992 3.1992h-133.11c-1.7656-0.003907-3.1992-1.4336-3.1992-3.1992v-59.48c0-1.7656 1.4336-3.1953 3.1992-3.1992h133.11c1.7656 0.003907 3.1992 1.4336 3.1992 3.1992z"/>
 </g>
</svg>
