<?xml version="1.0" encoding="UTF-8"?>
<svg width="512pt" height="512pt" version="1.1" viewBox="0 0 512 512" xmlns="http://www.w3.org/2000/svg">
 <g>
  <path d="m315.29 161.18h-103.73-14.848c2.5586 2.5586 5.1211 5.1211 7.6797 7.6797v-103.73-14.848l-7.6797 7.6797h103.73 14.848l-7.6797-7.6797v103.73 14.848c0 9.9336 15.359 9.9336 15.359 0v-103.73-14.848c0-4.1992-3.4805-7.6797-7.6797-7.6797h-103.73-14.848c-4.1992 0-7.6797 3.4805-7.6797 7.6797v103.73 14.848c0 4.1992 3.4805 7.6797 7.6797 7.6797h103.73 14.848c9.832 0.003906 9.9336-15.359 0-15.359z"/>
  <path d="m146.95 454.04h-103.73-14.848l7.6797 7.6797v-103.73-14.848c-2.5586 2.5586-5.1211 5.1211-7.6797 7.6797h103.73 14.848c-2.5586-2.5586-5.1211-5.1211-7.6797-7.6797v103.73 14.848c0 9.9336 15.359 9.9336 15.359 0v-103.73-14.848c0-4.1992-3.4805-7.6797-7.6797-7.6797h-103.73-14.848c-4.1992 0-7.6797 3.4805-7.6797 7.6797v103.73 14.848c0 4.1992 3.4805 7.6797 7.6797 7.6797h103.73 14.848c9.8281 0 9.8281-15.359 0-15.359z"/>
  <path d="m483.64 454.04h-103.73-14.848c2.5586 2.5586 5.1211 5.1211 7.6797 7.6797v-103.73-14.848c-2.5586 2.5586-5.1211 5.1211-7.6797 7.6797h103.73 14.848l-7.6797-7.6797v103.73 14.848c0 9.9336 15.359 9.9336 15.359 0v-103.73-14.848c0-4.1992-3.4805-7.6797-7.6797-7.6797h-103.73-14.848c-4.1992 0-7.6797 3.4805-7.6797 7.6797v103.73 14.848c0 4.1992 3.4805 7.6797 7.6797 7.6797h103.73 14.848c9.9297 0 9.9297-15.359 0-15.359z"/>
  <path d="m95.336 301.67v-40.859l-7.6797 7.6797h147.76 120.52 68.402l-7.6797-7.6797v40.859c0 9.9336 15.359 9.9336 15.359 0v-40.859c0-4.1992-3.4805-7.6797-7.6797-7.6797h-147.76-120.52-68.402c-4.1992 0-7.6797 3.4805-7.6797 7.6797v40.859c-0.003906 9.8281 15.359 9.9297 15.359 0z"/>
  <path d="m248.32 210.33v50.379c0 9.9336 15.359 9.9336 15.359 0v-50.379c0-9.8281-15.359-9.9297-15.359 0z"/>
 </g>
</svg>
