<?xml version="1.0" encoding="UTF-8"?>
<svg width="512pt" height="512pt" version="1.1" viewBox="0 0 512 512" xmlns="http://www.w3.org/2000/svg">
 <g>
  <path d="m304.15 164.25h-34.301-52.5-7.1016c-0.80078 0-2.3008 0.25-3.0508-0.14844-0.89844-0.5-0.69922-1.8516-0.69922-2.8008v-6.3516-51.602-24.852-8.1992c0-1.1484-0.19922-2.5 0-3.6016 0.25-1.3516 0.94922-1.4492 2.1016-1.4492 1.75-0.050782 3.5 0 5.25 0h21.5 54.352c4.6016 0 9.25-0.25 13.852 0 2.6992 0.14844 1.8984 3.5508 1.8984 5.6992v48.051 42.648c0.050781 1.1562 0.19922 2.5039-1.3008 2.6055-6.3984 0.35156-6.4492 10.352 0 10 6.5-0.35156 11.199-5.1484 11.352-11.699 0.050781-1.5508 0-3.0508 0-4.6016v-21.699-56.199c0-4.3984 0.14844-8.8516 0-13.301-0.19922-6.3984-4.9492-11.301-11.398-11.551-1.1016-0.050781-2.1992 0-3.25 0h-49.102c-14.398 0-28.75-0.14844-43.148 0-4.8008 0.050781-9.1484 2.3008-11.102 6.8008-0.94922 2.1484-1 4.3008-1 6.6016v18.25 56.898 17.449c0 2.8008 0.30078 5.4492 1.8984 7.8516 2.3984 3.6016 6.3008 5.1016 10.449 5.1016h44.102 48.301 2.8008c6.5 0.097656 6.5508-9.9023 0.097657-9.9023z"/>
  <path d="m162.9 446.75h-34.301-52.5-7.1016c-0.80078 0-2.3008 0.25-3.0508-0.14844-0.89844-0.5-0.69922-1.8516-0.69922-2.8008v-6.3516-51.602-24.852-8.1992c0-1.1484-0.19922-2.5 0-3.6016 0.25-1.3516 0.94922-1.4492 2.1016-1.4492 1.75-0.050782 3.5 0 5.25 0h21.5 54.352c4.6016 0 9.25-0.25 13.852 0 2.6992 0.14844 1.8984 3.5508 1.8984 5.6992v48.051 42.648c0.050781 1.1562 0.19922 2.5039-1.3008 2.6055-6.3984 0.35156-6.4492 10.352 0 10 6.5-0.35156 11.199-5.1484 11.352-11.699 0.050781-1.5508 0-3.0508 0-4.6016v-21.699-56.199c0-4.3984 0.14844-8.8516 0-13.301-0.19922-6.3984-4.9492-11.301-11.398-11.551-1.1016-0.050781-2.1992 0-3.25 0h-49.102c-14.398 0-28.75-0.14844-43.148 0-4.8008 0.050781-9.1484 2.3008-11.102 6.8008-0.94922 2.1484-1 4.3008-1 6.6016v18.25 56.898 17.449c0 2.8008 0.30078 5.4492 1.8984 7.8516 2.3984 3.6016 6.3008 5.1016 10.449 5.1016h44.102 48.301 2.8008c6.5 0.097656 6.5508-9.9023 0.097657-9.9023z"/>
  <path d="m445.4 446.75h-34.301-52.5-7.1016c-0.80078 0-2.3008 0.25-3.0508-0.14844-0.89844-0.5-0.69922-1.8516-0.69922-2.8008v-6.3516-51.602-24.852-8.1992c0-1.1484-0.19922-2.5 0-3.6016 0.25-1.3516 0.94922-1.4492 2.1016-1.4492 1.75-0.050782 3.5 0 5.25 0h21.5 54.352c4.6016 0 9.25-0.25 13.852 0 2.6992 0.14844 1.8984 3.5508 1.8984 5.6992v48.051 42.648c0.050781 1.1562 0.19922 2.5039-1.3008 2.6055-6.3984 0.35156-6.4492 10.352 0 10 6.5-0.35156 11.199-5.1484 11.352-11.699 0.050781-1.5508 0-3.0508 0-4.6016v-21.699-56.199c0-4.3984 0.14844-8.8516 0-13.301-0.19922-6.3984-4.9492-11.301-11.398-11.551-1.1016-0.050781-2.1992 0-3.25 0h-49.102c-14.398 0-28.75-0.14844-43.148 0-4.8008 0.050781-9.1484 2.3008-11.102 6.8008-0.94922 2.1484-1 4.3008-1 6.6016v18.25 56.898 17.449c0 2.8008 0.30078 5.4492 1.8984 7.8516 2.3984 3.6016 6.3008 5.1016 10.449 5.1016h44.102 48.301 2.8008c6.5 0.097656 6.5508-9.9023 0.097657-9.9023z"/>
  <path d="m119 307.75v-39.051c0-2.0508-0.5-4.3516 2-4.4492 2-0.050781 4 0 6 0h27.949 43.199 51.301 52.148 45.852 32.352 8.8984c0.89844 0 2.75-0.30078 3.5508 0.19922 1.1016 0.69922 0.64844 3.3008 0.64844 4.3984v10.301 24.051 4.5508c0 6.4492 10 6.4492 10 0v-39.699c0-3.3008-0.19922-6.3984-2.3008-9.1992-2.25-3-5.6016-4.5-9.3008-4.6016-1.75-0.050781-3.5 0-5.25 0h-27.398-43.801-52.449-53.102-46.602-32.148c-6.75 0-15.301-1.3516-19.699 5.1016-1.8516 2.6992-1.8984 5.6992-1.8984 8.8516v10.25 24.602 4.75c0.050781 6.3945 10.051 6.3945 10.051-0.054688z"/>
  <path d="m251 204.25v48.102 6.8984c0 6.4492 10 6.4492 10 0v-48.102-6.8984c0-6.4492-10-6.4492-10 0z"/>
 </g>
</svg>
