<?xml version="1.0" encoding="UTF-8"?>
<svg width="512pt" height="512pt" version="1.1" viewBox="0 0 512 512" xmlns="http://www.w3.org/2000/svg">
 <path d="m276.48 307.2h163.84c11.266 0 20.48-9.2148 20.48-20.48v-76.797c0-11.266-9.2148-20.48-20.48-20.48h-163.84c-11.266 0-20.48 9.2148-20.48 20.48v30.719h-102.4v-66.562h76.801c11.266 0 20.48-9.2148 20.48-20.48l-0.003906-76.797c0-11.266-9.2148-20.48-20.48-20.48h-163.84c-11.266 0-20.48 9.2148-20.48 20.48v76.801c0 11.266 9.2148 20.48 20.48 20.48h71.68v222.72c0 2.0234 0.82031 4 2.2461 5.4336 1.4336 1.4297 3.4141 2.2461 5.4375 2.2461h110.08v30.719c0 11.266 9.2148 20.48 20.48 20.48h163.84c11.266 0 20.48-9.2148 20.48-20.48v-76.801c0-11.266-9.2148-20.48-20.48-20.48l-163.84 0.003906c-11.266 0-20.48 9.2148-20.48 20.48v30.719h-102.4v-133.12h102.4v30.719c0 11.266 9.2148 20.48 20.48 20.48zm-215.04-153.6v-76.801c0-2.7734 2.3438-5.1211 5.1211-5.1211h163.84c2.7734 0 5.1211 2.3438 5.1211 5.1211v76.801c0 2.7734-2.3438 5.1211-5.1211 5.1211l-163.84-0.003906c-2.7734 0-5.1172-2.3438-5.1172-5.1172zm209.92 204.8c0-2.7734 2.3438-5.1211 5.1211-5.1211h163.84c2.7734 0 5.1211 2.3438 5.1211 5.1211v76.801c0 2.7734-2.3438 5.1211-5.1211 5.1211h-163.84c-2.7734 0-5.1211-2.3438-5.1211-5.1211zm0-148.48c0-2.7734 2.3438-5.1211 5.1211-5.1211h163.84c2.7734 0 5.1211 2.3438 5.1211 5.1211v76.801c0 2.7734-2.3438 5.1211-5.1211 5.1211l-163.84-0.003906c-2.7734 0-5.1211-2.3438-5.1211-5.1211z"/>
</svg>
