<svg xmlns:dc="http://purl.org/dc/elements/1.1/" xmlns:cc="http://creativecommons.org/ns#" xmlns:rdf="http://www.w3.org/1999/02/22-rdf-syntax-ns#" xmlns:svg="http://www.w3.org/2000/svg" xmlns="http://www.w3.org/2000/svg" version="1.1" viewBox="0 0 48 48" x="0px" y="0px"><g transform="translate(0.15429996)"><path style="color:#000000;font-style:normal;font-variant:normal;font-weight:normal;font-stretch:normal;font-size:medium;line-height:normal;font-family:sans-serif;font-variant-ligatures:normal;font-variant-position:normal;font-variant-caps:normal;font-variant-numeric:normal;font-variant-alternates:normal;font-variant-east-asian:normal;font-feature-settings:normal;font-variation-settings:normal;text-indent:0;text-align:start;text-decoration:none;text-decoration-line:none;text-decoration-style:solid;text-decoration-color:#000000;letter-spacing:normal;word-spacing:normal;text-transform:none;writing-mode:lr-tb;direction:ltr;text-orientation:mixed;dominant-baseline:auto;baseline-shift:baseline;text-anchor:start;white-space:normal;shape-padding:0;shape-margin:0;inline-size:0;clip-rule:nonzero;display:inline;overflow:visible;visibility:visible;opacity:1;isolation:auto;mix-blend-mode:normal;color-interpolation:sRGB;color-interpolation-filters:linearRGB;solid-color:#000000;solid-opacity:1;vector-effect:none;fill:#000000;fill-opacity:1;fill-rule:nonzero;stroke:none;stroke-linecap:round;stroke-linejoin:round;stroke-miterlimit:4;stroke-dasharray:none;stroke-dashoffset:0;stroke-opacity:1;color-rendering:auto;image-rendering:auto;shape-rendering:auto;text-rendering:auto;enable-background:accumulate;stop-color:#000000;stop-opacity:1" d="m 10.8457,2 c -2.1987,0 -4,1.8013 -4,4 v 36 c 0,2.1987 1.8013,4 4,4 h 26 c 2.19871,0 4,-1.8013 4,-4 V 12 a 1.0001,1.0001 0 0 0 -0.25195,-0.66406 l -8,-9 A 1.0001,1.0001 0 0 0 31.8457,2 Z m 0,2 h 19 v 6 c 0,1.6447 1.3553,3 3,3 h 6 v 29 c 0,1.1253 -0.8747,2 -2,2 h -26 c -1.12529,0 -2,-0.8747 -2,-2 V 6 c 0,-1.1253 0.87471,-2 2,-2 z m 21,0.50586 L 37.61914,11 H 32.8457 c -0.5713,0 -1,-0.4287 -1,-1 z"></path><path style="color:#000000;font-style:normal;font-variant:normal;font-weight:normal;font-stretch:normal;font-size:medium;line-height:normal;font-family:sans-serif;font-variant-ligatures:normal;font-variant-position:normal;font-variant-caps:normal;font-variant-numeric:normal;font-variant-alternates:normal;font-variant-east-asian:normal;font-feature-settings:normal;font-variation-settings:normal;text-indent:0;text-align:start;text-decoration:none;text-decoration-line:none;text-decoration-style:solid;text-decoration-color:#000000;letter-spacing:normal;word-spacing:normal;text-transform:none;writing-mode:lr-tb;direction:ltr;text-orientation:mixed;dominant-baseline:auto;baseline-shift:baseline;text-anchor:start;white-space:normal;shape-padding:0;shape-margin:0;inline-size:0;clip-rule:nonzero;display:inline;overflow:visible;visibility:visible;opacity:1;isolation:auto;mix-blend-mode:normal;color-interpolation:sRGB;color-interpolation-filters:linearRGB;solid-color:#000000;solid-opacity:1;vector-effect:none;fill:#000000;fill-opacity:1;fill-rule:nonzero;stroke:none;stroke-linecap:round;stroke-linejoin:round;stroke-miterlimit:4;stroke-dasharray:none;stroke-dashoffset:0;stroke-opacity:1;color-rendering:auto;image-rendering:auto;shape-rendering:auto;text-rendering:auto;enable-background:accumulate;stop-color:#000000;stop-opacity:1" d="m 22.68555,17.05078 c -4.40644,0 -8,3.59357 -8,8 0,4.40644 3.59356,8 8,8 1.84402,0 3.54097,-0.63652 4.89648,-1.6914 l 5.71094,5.71093 c 0.39051,0.39043 1.02355,0.39043 1.41406,0 0.39042,-0.3905 0.39042,-1.02355 0,-1.41406 l -5.71094,-5.71094 c 1.05471,-1.35545 1.68946,-3.05068 1.68946,-4.89453 0,-4.40643 -3.59357,-8 -8,-8 z m 0,2 c 3.32555,0 6,2.67445 6,6 0,3.32555 -2.67445,6 -6,6 -3.32556,0 -6,-2.67445 -6,-6 0,-3.32555 2.67444,-6 6,-6 z"></path></g></svg>