<?xml version="1.0" encoding="UTF-8"?>
<svg width="512pt" height="512pt" version="1.1" viewBox="0 0 512 512" xmlns="http://www.w3.org/2000/svg">
 <path d="m250.11 346.23c-15.395 21.965-37.633 36.285-61.812 42.102-22.969 5.5234-47.676 3.3789-69.938-7.1758l-5.8047 8.2812c1.3203 2.6406 2.0508 5.5352 2.1445 8.4609 0.14063 4.2266-1.0352 8.5312-3.6406 12.25l-34.566 49.32c-3.2148 4.5742-7.9844 7.418-13.078 8.3125s-10.547-0.15625-15.125-3.3633c-4.4453-3.2148-9.1484-6.2344-13.543-9.4883l-0.007813 0.011718c-4.5703-3.2031-7.4141-7.9805-8.3125-13.094-0.89453-5.0977 0.15234-10.547 3.3633-15.125l34.551-49.297c2.6172-3.7344 6.2695-6.3203 10.293-7.6289 2.7852-0.91016 5.7539-1.2109 8.6836-0.87109l5.7969-8.2695c-17.523-17.336-27.977-39.84-30.617-63.312-2.7773-24.691 3.0977-50.465 18.492-72.43 16.766-23.922 41.621-38.777 68.258-43.461 26.629-4.6797 55.055 0.80078 78.965 17.562 23.922 16.766 38.777 41.625 43.461 68.258 4.6797 26.625-0.80078 55.051-17.562 78.965zm153.72 147.96-168.95 1.5977c-8.9414 0.19531-15.82-1.832-20.621-6.082-4.9805-4.4023-7.4375-10.824-7.3672-19.258 0.011719-6.0352 0.007813-12.074-0.003906-18.125-0.011719-4.6875-0.03125-9.3984-0.054688-14.121l-17.551 0.16797c-8.9414 0.19531-15.82-1.832-20.625-6.0859-4.9805-4.4023-7.4375-10.824-7.3672-19.258 0.023438-3.0273 2.4961-5.4609 5.5234-5.4375s5.4609 2.4961 5.4375 5.5234c-0.039062 5.1055 1.1836 8.7617 3.6719 10.961 2.6602 2.3555 7.043 3.4648 13.145 3.332 56.383 0 112.9-1.3594 169.31-1.6016 0.61328 0.011718 19.039 0.015625 34.785 0.007812 11.555-0.007812 21.664-0.023437 22.09-0.042968 5.0391-0.23828 8.6641-1.4922 10.867-3.75 2.168-2.2227 3.2344-5.7188 3.1992-10.48l-2.5703-198.83v-0.03125l-0.67969-52.559-38.492 0.55469 2.5547 197.59c0.0625 7.7969-2.0352 13.879-6.293 18.246-4.2266 4.332-10.301 6.6875-18.223 7.0625l-0.35156 0.007813c-1.9102 0.015624-11.508 0.03125-22.332 0.035156-15.5 0.011718-33.535 0.007812-34.855-0.007813l-31.973 0.30469c-3.0273 0.023437-5.5-2.4102-5.5234-5.4375-0.023437-3.0273 2.4102-5.5 5.4375-5.5234l32.211-0.30469c0.61328 0.015625 18.973 0.015625 34.703 0.007812 11.352-0.007812 21.324-0.019531 22.148-0.039062l0.023437-0.003906c5.0391-0.23828 8.6641-1.4883 10.871-3.75 2.1641-2.2227 3.2344-5.7188 3.1992-10.48l-3.25-251.41-50.652 0.72656c-8.7031 0.003906-15.57-2.0117-20.605-6.0469-4.5742-3.668-7.457-8.8008-8.6445-15.398-0.27734-0.65625-0.42969-1.375-0.42969-2.1289l0.003906-1.0898c-0.007812-0.15625-0.007812-0.3125 0.003906-0.46484l0.17188-55.359h-160.12c-4.1602 0.53125-7.8984 2.0977-10.508 4.6445-2.2617 2.2031-3.6992 5.2422-3.8125 9.0781-0.64844 21.824-0.98438 43.785-1.1055 65.828-0.12891 22.113-0.042968 44.367 0.14453 66.68 0.023437 3.0273-2.4102 5.5-5.4375 5.5234s-5.5-2.4102-5.5234-5.4414c-0.1875-22.34-0.27344-44.637-0.14844-66.805 0.125-22.242 0.46094-44.305 1.1055-66.086 0.20312-6.9414 2.8945-12.52 7.125-16.645 4.4844-4.3711 10.648-6.9883 17.312-7.7383 0.20312-0.023437 0.40234-0.035156 0.60156-0.035156v-0.011719h165.86c1.6641 0 3.1523 0.73828 4.1602 1.9062l79.777 79.418c1.1211 1.1094 1.6562 2.5859 1.6172 4.0469l0.011719 0.80469 48.523 48.305c1.1172 1.1094 1.6562 2.5859 1.6172 4.0469l0.125 9.7109 43.859 43.664c1.1172 1.1094 1.6562 2.5859 1.6172 4.0469l3.3164 256.7c0.0625 7.7969-2.0352 13.879-6.2969 18.246-4.2266 4.332-10.301 6.6875-18.219 7.0625-0.41797 0.019531-10.68 0.035156-22.449 0.042969-15.547 0.011718-33.75 0.007812-35.094-0.003907zm-186.03-56.09c0.023437 4.7383 0.042969 9.4766 0.050781 14.227 0.015625 6.0664 0.015625 12.125 0.003906 18.168v0.042969c-0.039062 5.1055 1.1836 8.7617 3.6719 10.961 2.6602 2.3555 7.0469 3.4648 13.145 3.332 56.383 0 112.91-1.3594 169.31-1.6016 0.62109 0.015625 19.164 0.015625 34.941 0.007813 11.488-0.007813 21.508-0.023438 21.934-0.042969 5.0391-0.23828 8.6641-1.4922 10.867-3.75 2.168-2.2227 3.2344-5.7188 3.1992-10.48l-3.25-251.41-33.891 0.48828 2.5 193.39c0.0625 7.7969-2.0391 13.879-6.2969 18.246-4.2266 4.332-10.301 6.6875-18.219 7.0625-0.42187 0.019531-10.773 0.035156-22.605 0.042968-15.516 0.011719-33.613 0.007813-34.934-0.003906l-140.43 1.332zm219.85-231.03 26.344-0.37891-26.695-26.574 0.34766 26.953zm-50.207-57.359 30.949-0.44531-31.359-31.219zm-19.203-53.602-61.535-61.258-0.14844 47.645c0.52734 4.8164 2.1875 8.3477 4.9883 10.59 3.0234 2.4219 7.582 3.6367 13.672 3.6406zm-159.82 125.43 0.18359 0.12891c17.586 12.398 28.512 30.73 31.965 50.363 3.4609 19.691-0.58984 40.707-12.977 58.387l-0.042969 0.0625c-12.398 17.668-30.773 28.641-50.461 32.105-19.672 3.457-40.672-0.58594-58.344-12.945l-0.007813 0.011719c-0.125-0.082031-0.24219-0.17188-0.35547-0.26953-17.516-12.398-28.402-30.688-31.848-50.277-3.4609-19.672 0.58203-40.672 12.941-58.344l-0.011719-0.007813c0.085937-0.12891 0.17578-0.24609 0.26953-0.35547 12.398-17.52 30.688-28.406 50.277-31.852 19.695-3.4648 40.719 0.58984 58.402 12.988zm24.93 51.754c-3.1328-17.82-13.039-34.441-28.973-45.664l-0.16797-0.11719c-16.012-11.211-35.066-14.879-52.93-11.734-17.777 3.125-34.363 12.992-45.586 28.863l-0.11719 0.19141-0.007812-0.003907-0.066407 0.085938c-11.215 16.016-14.879 35.07-11.734 52.938 3.125 17.777 12.992 34.363 28.859 45.586l0.1875 0.11719-0.007812 0.011718 0.0625 0.046876c16.023 11.23 35.09 14.898 52.965 11.758 17.867-3.1445 34.531-13.09 45.758-29.102l0.003906-0.007813c11.227-16.02 14.898-35.086 11.758-52.961zm-47.586 104.38c21.656-5.2109 41.574-18.039 55.367-37.719 15.008-21.414 19.918-46.898 15.715-70.793-4.1992-23.887-17.5-46.164-38.902-61.164-21.414-15.008-46.902-19.914-70.797-15.715-23.887 4.2031-46.164 17.5-61.168 38.906-13.789 19.676-19.055 42.789-16.559 64.949 2.5234 22.398 12.984 43.809 30.586 59.688l-0.011719 0.011719c2.0312 1.8242 2.4297 4.918 0.82422 7.2148l-10.41 14.852c-1.3008 2.1641-3.9766 3.207-6.4648 2.3633-1.9258-0.65625-4.0117-0.64062-5.9141-0.019531-1.8516 0.60156-3.5234 1.7773-4.7031 3.457l-34.551 49.297c-1.457 2.0781-1.9258 4.5898-1.5117 6.957 0.41406 2.3516 1.7109 4.5391 3.7969 6.0039l-0.007813 0.011718 13.109 9.1836c0.25781 0.14844 0.50391 0.31641 0.73828 0.50781 2.0117 1.2852 4.3828 1.6836 6.625 1.293 2.2383-0.39453 4.3203-1.5742 5.7656-3.457 0.15234-0.25391 0.32422-0.5 0.52344-0.73047l34.266-48.887c1.1914-1.6992 1.7266-3.6797 1.6641-5.6289-0.066407-1.9375-0.71875-3.8398-1.9102-5.3984-1.5977-1.8516-1.8047-4.6172-0.33984-6.7148l10.355-14.773c1.4766-2.543 4.7148-3.4844 7.3359-2.0938 20.953 11.145 44.664 13.68 66.574 8.4102z"/>
</svg>
