<?xml version="1.0" encoding="UTF-8"?>
<svg width="128pt" height="128pt" version="1.1" viewBox="0 0 128 128" xmlns="http://www.w3.org/2000/svg">
 <g>
  <path d="m28.309 45.527c0.19922 0.48828 0.49609 0.92969 0.86719 1.3047l12 12c1.5703 1.5156 4.0664 1.4961 5.6094-0.046875 1.543-1.543 1.5625-4.0391 0.046875-5.6094l-5.1758-5.1758h54.344c2.2109 0 4-1.7891 4-4s-1.7891-4-4-4h-54.344l5.1719-5.1719c1.5156-1.5703 1.4922-4.0664-0.050781-5.6055-1.5391-1.543-4.0352-1.5664-5.6055-0.050781l-12 12c-1.1445 1.1445-1.4883 2.8633-0.86719 4.3594z"/>
  <path d="m99.691 82.473c-0.19922-0.48828-0.49609-0.92969-0.86719-1.3047l-12-12c-1.5703-1.5156-4.0664-1.4961-5.6094 0.046875-1.543 1.543-1.5625 4.0391-0.046875 5.6094l5.1758 5.1758h-54.344c-2.2109 0-4 1.7891-4 4s1.7891 4 4 4h54.344l-5.1719 5.1719c-0.77344 0.74609-1.2109 1.7695-1.2227 2.8438-0.007813 1.0703 0.41406 2.1016 1.1719 2.8633 0.76172 0.75781 1.793 1.1797 2.8633 1.1719 1.0742-0.011719 2.0977-0.44922 2.8438-1.2227l12-12c1.1445-1.1445 1.4883-2.8633 0.86719-4.3594z"/>
 </g>
</svg>
