<?xml version="1.0" encoding="UTF-8"?>
<svg width="512pt" height="512pt" version="1.1" viewBox="0 0 512 512" xmlns="http://www.w3.org/2000/svg">
 <path d="m332.61 494.15-221.6 2.0977c-11.285 0.24609-19.914-2.2695-25.883-7.5508-6.1406-5.4336-9.1719-13.422-9.0898-23.965 0.10156-51.676-0.57812-104.06-1.2656-156.54-1.1484-88.016-2.3008-176.29 0.25-262.1 0.25781-8.6172 3.5898-15.539 8.8281-20.648 5.5977-5.4609 13.328-8.7305 21.699-9.6758 0.20312-0.023437 0.40234-0.03125 0.60156-0.035156v-0.007813h217.51c1.6641 0 3.1562 0.73438 4.1641 1.9023l104.71 104.24c1.1172 1.1133 1.6562 2.5859 1.6172 4.0469l4.3516 336.71c0.078126 9.7539-2.5156 17.328-7.7734 22.723-5.2266 5.3594-12.812 8.2734-22.75 8.7461-0.55469 0.027344-14.102 0.042968-29.59 0.054687-20.418 0.011719-44.234 0.011719-45.781-0.007812zm-151.24-278.72c-1.4492 2.6602-4.7773 3.6406-7.4375 2.1914-2.6562-1.4492-3.6406-4.7773-2.1914-7.4375 1.2148-2.2227 2.543-4.4297 3.9844-6.6211 1.4258-2.1602 2.9297-4.2617 4.5156-6.293 16.164-20.691 39.211-32.844 63.406-35.762 24.168-2.918 49.5 3.3945 70.273 19.617 13.574 10.602 23.512 24.133 29.609 38.98 4 9.7383 6.3477 20.051 6.9883 30.477l5.9531-8.1016c1.793-2.4453 5.2266-2.9766 7.6719-1.1836s2.9766 5.2305 1.1836 7.6758l-16.309 22.191c-0.33203 0.49219-0.75 0.94531-1.2539 1.3242-2.4219 1.8242-5.8672 1.3438-7.6953-1.0742l-16.133-21.312c-1.8281-2.4219-1.3438-5.8672 1.0742-7.6953 2.4219-1.8281 5.8672-1.3438 7.6953 1.0742l6.9375 9.1641c-0.4375-9.7031-2.543-19.316-6.2617-28.371-5.3945-13.145-14.188-25.117-26.203-34.504l-0.011719-0.007812c-18.367-14.348-40.809-19.926-62.234-17.34-21.398 2.582-41.773 13.312-56.047 31.582l-0.007812 0.011719c-1.4375 1.8359-2.7695 3.6953-4 5.5625-1.2461 1.8945-2.418 3.8438-3.5117 5.8438zm147.98 81.41c1.4609-2.6602 4.7969-3.6328 7.457-2.1719 2.6602 1.457 3.6328 4.7969 2.1719 7.457-1.2031 2.1797-2.5117 4.3398-3.9219 6.4766-1.3398 2.0273-2.8164 4.0742-4.4297 6.1406-16.16 20.691-39.211 32.844-63.406 35.762-24.168 2.9141-49.504-3.3945-70.277-19.617-13.582-10.609-23.523-24.148-29.617-39.012-3.7891-9.2344-6.0938-18.984-6.8672-28.859l-4.7539 7.25c-1.6602 2.5391-5.0703 3.2539-7.6094 1.5898-2.5391-1.6602-3.2539-5.0703-1.5898-7.6094l15.305-23.344c1.6602-2.5391 5.0703-3.2539 7.6094-1.5898 0.60938 0.39844 1.1094 0.89844 1.5039 1.457l15.094 19.941c1.8281 2.4219 1.3438 5.8672-1.0742 7.6953-2.4219 1.8281-5.8672 1.3477-7.6953-1.0742l-6.0234-7.9609c0.4375 9.6914 2.5391 19.297 6.25 28.34 5.3984 13.16 14.199 25.148 26.223 34.539 18.371 14.352 40.809 19.926 62.238 17.34 21.402-2.582 41.781-13.316 56.055-31.594 1.3438-1.7188 2.6484-3.5391 3.9141-5.4531 1.2227-1.8516 2.375-3.7539 3.4492-5.7031zm-218.48 188.45 221.91-2.1016c0.80859 0.019531 24.965 0.019531 45.625 0.007812 15.207-0.011718 28.516-0.027344 29.074-0.054687 7.0586-0.33203 12.191-2.1484 15.398-5.4336 3.168-3.25 4.7305-8.2344 4.6797-14.961l-4.2852-331.42-68.113 0.97656c-11.008 0.003907-19.66-2.5156-25.949-7.5586-5.7109-4.5781-9.3008-11.031-10.766-19.359-0.32031-0.69922-0.50391-1.4766-0.50391-2.2969l0.003907-1.4883c-0.007813-0.16016-0.007813-0.32031 0.003906-0.47656l0.23047-74.391h-211.78c-5.8672 0.72266-11.168 2.9492-14.887 6.5781-3.2695 3.1914-5.3555 7.5703-5.5156 13.082-2.5469 85.68-1.3984 173.8-0.25 261.67 0.6875 52.5 1.3711 104.91 1.2656 156.71v0.042969c-0.058594 7.2148 1.7422 12.438 5.3906 15.664 3.8242 3.3828 9.9609 4.9844 18.402 4.7969h0.066406zm304.71-364.81-86.469-86.082-0.20703 66.68c0.73047 6.8281 3.125 11.871 7.1758 15.121 4.2773 3.4297 10.617 5.1445 19.016 5.1484z"/>
</svg>
