<?xml version="1.0" encoding="UTF-8"?>
<svg width="128pt" height="128pt" version="1.1" viewBox="0 0 128 128" xmlns="http://www.w3.org/2000/svg">
 <g>
  <path d="m23.066 25.367h81.867c2.5234 0 4.5664-2.043 4.5664-4.5664 0-2.5234-2.043-4.5664-4.5664-4.5664h-81.867c-2.5234 0-4.5664 2.043-4.5664 4.5664 0 2.5234 2.043 4.5664 4.5664 4.5664z"/>
  <path d="m67.23 41.27c-0.21094-0.21094-0.44531-0.40234-0.69531-0.57031-0.11328-0.078125-0.23828-0.12891-0.35547-0.19141-0.14063-0.078124-0.27734-0.16406-0.42969-0.22656-0.011719-0.003906-0.019531-0.011719-0.027344-0.015625-0.14453-0.058594-0.29297-0.089844-0.44141-0.12891-0.12891-0.039063-0.25-0.085938-0.38281-0.11328-0.58984-0.11719-1.1992-0.11719-1.7891 0-0.13281 0.027343-0.25391 0.074218-0.38281 0.11328-0.15625 0.046875-0.31641 0.082031-0.47266 0.14453-0.15234 0.0625-0.28516 0.14844-0.42969 0.22656-0.11719 0.066407-0.24219 0.11719-0.35547 0.19141-0.25 0.16797-0.48438 0.35547-0.69531 0.57031l-17.602 17.598c-1.7812 1.7812-1.7812 4.6758 0 6.457s4.6758 1.7812 6.457 0l9.8047-9.8047v51.68c0 2.5234 2.043 4.5664 4.5664 4.5664s4.5664-2.043 4.5664-4.5664v-51.676l9.8047 9.8047c1.7812 1.7812 4.6758 1.7812 6.457 0s1.7812-4.6758 0-6.457z"/>
 </g>
</svg>
