<svg xmlns:dc="http://purl.org/dc/elements/1.1/" xmlns:cc="http://creativecommons.org/ns#" xmlns:rdf="http://www.w3.org/1999/02/22-rdf-syntax-ns#" xmlns:svg="http://www.w3.org/2000/svg" xmlns="http://www.w3.org/2000/svg" version="1.1" viewBox="0 0 48 48" x="0px" y="0px"><g transform="translate(0.99999996)"><path style="color:#000000;font-style:normal;font-variant:normal;font-weight:normal;font-stretch:normal;font-size:medium;line-height:normal;font-family:sans-serif;font-variant-ligatures:normal;font-variant-position:normal;font-variant-caps:normal;font-variant-numeric:normal;font-variant-alternates:normal;font-variant-east-asian:normal;font-feature-settings:normal;font-variation-settings:normal;text-indent:0;text-align:start;text-decoration:none;text-decoration-line:none;text-decoration-style:solid;text-decoration-color:#000000;letter-spacing:normal;word-spacing:normal;text-transform:none;writing-mode:lr-tb;direction:ltr;text-orientation:mixed;dominant-baseline:auto;baseline-shift:baseline;text-anchor:start;white-space:normal;shape-padding:0;shape-margin:0;inline-size:0;clip-rule:nonzero;display:inline;overflow:visible;visibility:visible;opacity:1;isolation:auto;mix-blend-mode:normal;color-interpolation:sRGB;color-interpolation-filters:linearRGB;solid-color:#000000;solid-opacity:1;vector-effect:none;fill:#000000;fill-opacity:1;fill-rule:nonzero;stroke:none;stroke-linecap:round;stroke-linejoin:round;stroke-miterlimit:4;stroke-dasharray:none;stroke-dashoffset:0;stroke-opacity:1;color-rendering:auto;image-rendering:auto;shape-rendering:auto;text-rendering:auto;enable-background:accumulate;stop-color:#000000;stop-opacity:1" d="M 10,2 C 7.8013,2 6,3.8013 6,6 v 36 c 0,2.1987 1.8013,4 4,4 h 26 c 2.1987,0 4,-1.8013 4,-4 V 12 a 1.0001,1.0001 0 0 0 -0.25195,-0.66406 l -8,-9 A 1.0001,1.0001 0 0 0 31,2 Z m 0,2 h 19 v 6 c 0,1.6447 1.3553,3 3,3 h 6 v 29 c 0,1.1253 -0.8747,2 -2,2 H 10 C 8.8747,44 8,43.1253 8,42 V 6 C 8,4.8747 8.8747,4 10,4 Z M 31,4.50586 36.77344,11 H 32 c -0.5713,0 -1,-0.4287 -1,-1 z"></path><path style="color:#000000;font-style:normal;font-variant:normal;font-weight:normal;font-stretch:normal;font-size:medium;line-height:normal;font-family:sans-serif;font-variant-ligatures:normal;font-variant-position:normal;font-variant-caps:normal;font-variant-numeric:normal;font-variant-alternates:normal;font-variant-east-asian:normal;font-feature-settings:normal;font-variation-settings:normal;text-indent:0;text-align:start;text-decoration:none;text-decoration-line:none;text-decoration-style:solid;text-decoration-color:#000000;letter-spacing:normal;word-spacing:normal;text-transform:none;writing-mode:lr-tb;direction:ltr;text-orientation:mixed;dominant-baseline:auto;baseline-shift:baseline;text-anchor:start;white-space:normal;shape-padding:0;shape-margin:0;inline-size:0;clip-rule:nonzero;display:inline;overflow:visible;visibility:visible;opacity:1;isolation:auto;mix-blend-mode:normal;color-interpolation:sRGB;color-interpolation-filters:linearRGB;solid-color:#000000;solid-opacity:1;vector-effect:none;fill:#000000;fill-opacity:1;fill-rule:nonzero;stroke:none;stroke-linecap:round;stroke-linejoin:round;stroke-miterlimit:4;stroke-dasharray:none;stroke-dashoffset:0;stroke-opacity:1;color-rendering:auto;image-rendering:auto;shape-rendering:auto;text-rendering:auto;enable-background:accumulate;stop-color:#000000;stop-opacity:1" d="m 23.01953,19 a 1.0001,1.0001 0 0 0 -0.7207,0.28711 l -6,5.89062 a 1,1 0 0 0 -0.0117,1.41407 1,1 0 0 0 1.41406,0.0117 L 22,22.38477 v 13.56054 c 0,0.55229 0.44772,1 1,1 0.55228,0 1,-0.44771 1,-1 V 22.38477 l 4.29883,4.21875 a 1,1 0 0 0 1.41406,-0.0117 1,1 0 0 0 -0.0117,-1.41407 l -6,-5.89062 A 1.0001,1.0001 0 0 0 23.01953,19 Z"></path></g></svg>