<?xml version="1.0" encoding="UTF-8"?>
<svg width="512pt" height="512pt" version="1.1" viewBox="0 0 512 512" xmlns="http://www.w3.org/2000/svg">
 <path d="m483.55 381.46c0 31.336-12.699 59.707-33.238 80.242-20.535 20.535-48.906 33.234-80.242 33.234-31.336 0-59.707-12.699-80.242-33.238-20.535-20.535-33.238-48.906-33.238-80.242 0-31.336 12.699-59.707 33.238-80.242 20.535-20.535 48.906-33.238 80.242-33.238 31.336 0 59.707 12.703 80.242 33.238s33.238 48.906 33.238 80.242zm-178.68 5.5039c-3.0391 0-5.5039-2.4609-5.5039-5.5039 0-3.0391 2.4648-5.5039 5.5039-5.5039h59.703v-59.707c0-3.0391 2.4648-5.5039 5.5039-5.5039 3.0391 0 5.5039 2.4648 5.5039 5.5039v59.707h59.703c3.0391 0 5.5039 2.4648 5.5039 5.5039 0 3.0391-2.4648 5.5039-5.5039 5.5039h-59.703v59.699c0 3.0391-2.4609 5.5039-5.5039 5.5039-3.0391 0-5.5039-2.4609-5.5039-5.5039v-59.699zm-17.285 96.215c3.0273-0.023438 5.5 2.4102 5.5234 5.4414 0.023438 3.0273-2.4102 5.5-5.4375 5.5234l-221.69 2.1016c-11.285 0.24609-19.914-2.2695-25.883-7.5508-6.1406-5.4336-9.1719-13.422-9.0898-23.965 0.10156-51.676-0.57812-104.06-1.2656-156.54-1.1484-88.016-2.3008-176.29 0.25-262.1 0.25781-8.6172 3.5898-15.539 8.8281-20.648 5.5977-5.4609 13.324-8.7305 21.695-9.6758 0.20313-0.023438 0.40234-0.03125 0.60156-0.035157v-0.007812h217.51c1.6641 0 3.1562 0.73438 4.1641 1.9023l104.71 104.24c1.1211 1.1133 1.6562 2.5859 1.6172 4.0469l1.5469 119.58c0.035156 3.0273-2.3906 5.5078-5.4141 5.543-3.0273 0.035156-5.5117-2.3906-5.5469-5.418l-1.4766-114.31-68.113 0.97656c-11.012 0.003906-19.66-2.5156-25.949-7.5586-5.7109-4.5781-9.3008-11.031-10.766-19.359-0.32422-0.69922-0.50391-1.4766-0.50391-2.2969l0.003906-1.4883c-0.007812-0.16016-0.007812-0.32031 0.003907-0.47656l0.23047-74.391h-211.78c-5.8672 0.72266-11.168 2.9492-14.887 6.5781-3.2695 3.1914-5.3555 7.5703-5.5156 13.082-2.5469 85.68-1.3984 173.8-0.25 261.67 0.6875 52.5 1.3711 104.91 1.2656 156.71v0.042969c-0.054688 7.2148 1.7422 12.438 5.3906 15.664 3.8242 3.3828 9.957 4.9844 18.398 4.7969l221.82-2.1016zm82.961-362.71-86.469-86.082-0.20703 66.68c0.73047 6.8281 3.125 11.871 7.1758 15.121 4.2773 3.4297 10.617 5.1445 19.02 5.1484zm71.992 333.45c18.543-18.543 30.012-44.164 30.012-72.461s-11.469-53.918-30.012-72.461c-18.543-18.547-44.164-30.012-72.461-30.012-28.297 0-53.918 11.469-72.461 30.012-18.543 18.543-30.012 44.164-30.012 72.461 0 28.301 11.469 53.918 30.012 72.461s44.164 30.012 72.461 30.012c28.301 0 53.918-11.469 72.461-30.012z"/>
</svg>
