<?xml version="1.0" encoding="UTF-8"?>
<svg width="128pt" height="128pt" version="1.1" viewBox="0 0 128 128" xmlns="http://www.w3.org/2000/svg">
 <path d="m42.098 71.387c-1.4688 0-2.6523 1.1836-2.6523 2.6523s1.1836 2.6523 2.6523 2.6523h23.008c1.4688-2.043 3.2617-3.8281 5.3047-5.3047l-28.312 0.003906zm0-20.34c-1.4688 0-2.6523 1.1875-2.6523 2.6523 0 1.4688 1.1836 2.6523 2.6523 2.6523h34.492c1.4688 0 2.6523-1.1875 2.6523-2.6523 0-1.4688-1.1875-2.6523-2.6523-2.6523zm0-20.344c-1.4688 0-2.6523 1.1875-2.6523 2.6523 0 1.4688 1.1836 2.6523 2.6523 2.6523h17.688c1.4688 0 2.6523-1.1875 2.6523-2.6523 0-1.4688-1.1836-2.6523-2.6523-2.6523zm28.848-17.57v11.488c0 3.7656 5.5391 8.4023 9.0742 8.6289 0.44531 0 1.0977 0.21484 1.543 0.44141h9.1797v34.219c1.875 0.55469 3.6641 1.3438 5.3047 2.3125l0.019531-43.75-18.605-18.723-44.871 0.078125c-4.418 0-9.7266 5.9688-9.9492 10.168v71.418c0 3.7578 6.1914 10.395 9.7266 10.172h30.168c-0.71484-1.6719-1.2422-3.4492-1.5469-5.3047l-27.957-0.003906c-1.9883 0-5.082-3.5352-5.082-5.5273v-70.09c-0.21875-2.2109 3.3164-5.9688 5.5273-5.5273zm19.793 15.254h-8.5078c-2.3203 0.17578-5.9258-2.6367-5.9766-4.8633v-9.4531l14.484 13.656zm4.9883 78.059 12.621 12.621c1.0156 1.0195 2.6445 1.0508 3.6172 0.078125 0.97266-0.97266 0.93359-2.5977-0.082032-3.6172l-12.512-12.516c2.875-3.457 4.6328-7.9141 4.6328-12.832 0-10.395-8.8438-19.68-19.898-19.68-11.273 0-19.898 9.2852-19.898 19.898 0 10.609 8.6211 19.898 19.898 19.898 4.2578 0.003906 8.3047-1.418 11.621-3.8516zm2.9727-16.043c0 8.1797-7.0742 14.594-14.594 14.594-8.4023 0-14.594-7.0781-14.594-14.594 0-7.7383 6.1875-14.594 14.594-14.594 8.1836 0 14.594 6.8555 14.594 14.594z" fill-rule="evenodd"/>
</svg>
