<?xml version="1.0" encoding="UTF-8"?>
<svg width="128pt" height="128pt" version="1.1" viewBox="0 0 128 128" xmlns="http://www.w3.org/2000/svg">
 <path d="m72.191 64 50.816-50.816c2.3047-2.3047 2.3047-5.8867 0-8.1914-2.3047-2.3047-5.8867-2.3047-8.1914 0l-50.816 50.816-50.816-50.945c-2.3047-2.3047-5.8867-2.3047-8.1914 0-2.3047 2.3047-2.3047 5.8867 0 8.1914l50.816 50.945-50.945 50.816c-2.3047 2.3047-2.3047 5.8867 0 8.1914 1.1523 1.1523 2.5586 1.6641 4.0977 1.6641 1.5352 0 2.9453-0.51172 4.0977-1.6641l50.941-50.816 50.816 50.816c1.1523 1.1523 2.5586 1.6641 4.0977 1.6641 1.5352 0 2.9453-0.51172 4.0977-1.6641 2.3047-2.3047 2.3047-5.8867 0-8.1914z" fill="#dc3545"/>
</svg>
