<?xml version="1.0" encoding="UTF-8"?>
<svg width="128pt" height="128pt" version="1.1" viewBox="0 0 128 128" xmlns="http://www.w3.org/2000/svg">
 <g>
  <path d="m29.332 5.332c-5.8633 0-10.664 4.8047-10.664 10.668v96c0 5.8633 4.8047 10.668 10.668 10.668h69.332c5.8633 0 10.668-4.8047 10.668-10.668l-0.003907-80c0-0.65234-0.23828-1.2812-0.67188-1.7695l-21.332-24c-0.50781-0.57031-1.2305-0.89844-1.9961-0.89844zm0 5.332h50.668v16c0 4.3867 3.6133 8 8 8h16v77.332c0 3-2.332 5.332-5.332 5.332l-69.336 0.003906c-3 0-5.332-2.332-5.332-5.332v-96c0-3 2.332-5.332 5.332-5.332zm56 1.3516 15.398 17.316h-12.73c-1.5234 0-2.668-1.1445-2.668-2.668z"/>
  <path d="m37.332 48c-1.4727 0-2.6641 1.1953-2.6641 2.668 0 0.70703 0.28125 1.3828 0.78125 1.8828s1.1758 0.78125 1.8828 0.78125h42.668c0.70703 0 1.3867-0.28125 1.8867-0.78125s0.78125-1.1758 0.78125-1.8828-0.28125-1.3867-0.78125-1.8867-1.1797-0.78125-1.8867-0.78125z"/>
  <path d="m37.332 64c-1.4727 0-2.6641 1.1953-2.6641 2.668 0 0.70703 0.28125 1.3828 0.78125 1.8828s1.1758 0.78125 1.8828 0.78125h53.336c0.70703 0 1.3828-0.28125 1.8828-0.78125s0.78125-1.1758 0.78125-1.8828-0.28125-1.3867-0.78125-1.8867-1.1758-0.78125-1.8828-0.78125z"/>
  <path d="m37.332 80c-1.4727 0-2.6641 1.1953-2.6641 2.668 0 0.70703 0.28125 1.3828 0.78125 1.8828s1.1758 0.78125 1.8828 0.78125h42.668c0.70703 0 1.3867-0.28125 1.8867-0.78125s0.78125-1.1758 0.78125-1.8828-0.28125-1.3867-0.78125-1.8867-1.1797-0.78125-1.8867-0.78125z"/>
  <path d="m37.332 96c-1.4727 0-2.6641 1.1953-2.6641 2.668 0 0.70703 0.28125 1.3828 0.78125 1.8828s1.1758 0.78125 1.8828 0.78125h53.336c0.70703 0 1.3828-0.28125 1.8828-0.78125s0.78125-1.1758 0.78125-1.8828-0.28125-1.3867-0.78125-1.8867-1.1758-0.78125-1.8828-0.78125z"/>
 </g>
</svg>
