<?xml version="1.0" encoding="UTF-8"?>
<svg width="512pt" height="512pt" version="1.1" viewBox="0 0 512 512" xmlns="http://www.w3.org/2000/svg">
 <path d="m102.4 368.64c0-8.1484 3.2383-15.961 9-21.723 5.7617-5.7617 13.574-8.9961 21.723-8.9961 8.1445 0 15.961 3.2344 21.723 8.9961 5.7578 5.7617 8.9961 13.574 8.9961 21.723s-3.2383 15.961-8.9961 21.723c-5.7617 5.7617-13.578 8.9961-21.723 8.9961-8.1484 0-15.961-3.2344-21.723-8.9961-5.7617-5.7617-9-13.574-9-21.723zm30.719-194.56 0.003906-0.003906c8.1445 0 15.961-3.2344 21.723-8.9961 5.7578-5.7617 8.9961-13.574 8.9961-21.723s-3.2383-15.961-8.9961-21.723c-5.7617-5.7617-13.578-8.9961-21.723-8.9961-8.1484 0-15.961 3.2344-21.723 8.9961-5.7617 5.7617-9 13.574-9 21.723s3.2383 15.961 9 21.723c5.7617 5.7617 13.574 8.9961 21.723 8.9961zm0 112.64 0.003906-0.003906c8.1445 0 15.961-3.2344 21.723-8.9961 5.7578-5.7617 8.9961-13.574 8.9961-21.723s-3.2383-15.961-8.9961-21.723c-5.7617-5.7617-13.578-8.9961-21.723-8.9961-8.1484 0-15.961 3.2344-21.723 8.9961-5.7617 5.7617-9 13.574-9 21.723s3.2383 15.961 9 21.723c5.7617 5.7617 13.574 8.9961 21.723 8.9961zm102.4-122.88h153.6c7.3164 0 14.078-3.9023 17.734-10.238 3.6602-6.3398 3.6602-14.145 0-20.48-3.6562-6.3359-10.418-10.242-17.734-10.242h-153.6c-7.3164 0-14.078 3.9062-17.734 10.242-3.6602 6.3359-3.6602 14.141 0 20.48 3.6562 6.3359 10.418 10.238 17.734 10.238zm0 112.64h153.6c7.3164 0 14.078-3.9023 17.734-10.242 3.6602-6.3359 3.6602-14.141 0-20.477-3.6562-6.3398-10.418-10.242-17.734-10.242h-153.6c-7.3164 0-14.078 3.9023-17.734 10.242-3.6602 6.3359-3.6602 14.141 0 20.477 3.6562 6.3398 10.418 10.242 17.734 10.242zm0 112.64h153.6c7.3164 0 14.078-3.9062 17.734-10.242 3.6602-6.3359 3.6602-14.141 0-20.48-3.6562-6.3359-10.418-10.238-17.734-10.238h-153.6c-7.3164 0-14.078 3.9023-17.734 10.238-3.6602 6.3398-3.6602 14.145 0 20.48 3.6562 6.3359 10.418 10.242 17.734 10.242z"/>
</svg>
